<?xml version="1.0" encoding="UTF-8" standalone="no"?>
<!DOCTYPE svg PUBLIC "-//W3C//DTD SVG 1.1//EN"
 "http://www.w3.org/Graphics/SVG/1.1/DTD/svg11.dtd">
<!-- Generated by graphviz version 2.43.0 (0)
 -->
<!-- Title: VHDL AST Pages: 1 -->
<svg width="6314pt" height="1074pt"
 viewBox="0.00 0.00 6313.50 1074.00" xmlns="http://www.w3.org/2000/svg" xmlns:xlink="http://www.w3.org/1999/xlink">
<g id="graph0" class="graph" transform="scale(1 1) rotate(0) translate(4 1070)">
<title>VHDL AST</title>
<polygon fill="white" stroke="transparent" points="-4,4 -4,-1070 6309.5,-1070 6309.5,4 -4,4"/>
<!-- node_0 -->
<g id="node1" class="node">
<title>node_0</title>
<path fill="#546e7a" stroke="#333333" d="M923,-1066C923,-1066 820,-1066 820,-1066 814,-1066 808,-1060 808,-1054 808,-1054 808,-1039 808,-1039 808,-1033 814,-1027 820,-1027 820,-1027 923,-1027 923,-1027 929,-1027 935,-1033 935,-1039 935,-1039 935,-1054 935,-1054 935,-1060 929,-1066 923,-1066"/>
<text text-anchor="middle" x="871.5" y="-1044" font-family="Arial" font-size="10.00">VHDL Design Context</text>
</g>
<!-- node_1 -->
<g id="node2" class="node">
<title>node_1</title>
<path fill="#546e7a" stroke="#333333" d="M413.5,-963.5C413.5,-963.5 355.5,-963.5 355.5,-963.5 349.5,-963.5 343.5,-957.5 343.5,-951.5 343.5,-951.5 343.5,-925.5 343.5,-925.5 343.5,-919.5 349.5,-913.5 355.5,-913.5 355.5,-913.5 413.5,-913.5 413.5,-913.5 419.5,-913.5 425.5,-919.5 425.5,-925.5 425.5,-925.5 425.5,-951.5 425.5,-951.5 425.5,-957.5 419.5,-963.5 413.5,-963.5"/>
<text text-anchor="middle" x="384.5" y="-941.5" font-family="Arial" font-size="10.00">HdlLibrary</text>
<text text-anchor="middle" x="384.5" y="-930.5" font-family="Arial" font-size="10.00">name: IEEE</text>
</g>
<!-- node_0&#45;&gt;node_1 -->
<g id="edge1" class="edge">
<title>node_0&#45;&gt;node_1</title>
<path fill="none" stroke="black" d="M807.89,-1034.13C688.66,-1012.82 443.5,-969 443.5,-969 443.5,-969 438.56,-966.53 431.53,-963.01"/>
<polygon fill="black" stroke="black" points="432.1,-960.95 425.8,-960.15 430.23,-964.71 432.1,-960.95"/>
</g>
<!-- node_2 -->
<g id="node3" class="node">
<title>node_2</title>
<path fill="#546e7a" stroke="#333333" d="M581.5,-963.5C581.5,-963.5 473.5,-963.5 473.5,-963.5 467.5,-963.5 461.5,-957.5 461.5,-951.5 461.5,-951.5 461.5,-925.5 461.5,-925.5 461.5,-919.5 467.5,-913.5 473.5,-913.5 473.5,-913.5 581.5,-913.5 581.5,-913.5 587.5,-913.5 593.5,-919.5 593.5,-925.5 593.5,-925.5 593.5,-951.5 593.5,-951.5 593.5,-957.5 587.5,-963.5 581.5,-963.5"/>
<text text-anchor="middle" x="527.5" y="-941.5" font-family="Arial" font-size="10.00">HdlLibrary</text>
<text text-anchor="middle" x="527.5" y="-930.5" font-family="Arial" font-size="10.00">name: common_pkg_lib</text>
</g>
<!-- node_0&#45;&gt;node_2 -->
<g id="edge2" class="edge">
<title>node_0&#45;&gt;node_2</title>
<path fill="none" stroke="black" d="M808.56,-1026.98C731.61,-1004.34 611.5,-969 611.5,-969 611.5,-969 606.8,-967.35 599.62,-964.83"/>
<polygon fill="black" stroke="black" points="600.04,-962.75 593.69,-962.74 598.65,-966.71 600.04,-962.75"/>
</g>
<!-- node_3 -->
<g id="node4" class="node">
<title>node_3</title>
<path fill="#546e7a" stroke="#333333" d="M787.5,-963.5C787.5,-963.5 641.5,-963.5 641.5,-963.5 635.5,-963.5 629.5,-957.5 629.5,-951.5 629.5,-951.5 629.5,-925.5 629.5,-925.5 629.5,-919.5 635.5,-913.5 641.5,-913.5 641.5,-913.5 787.5,-913.5 787.5,-913.5 793.5,-913.5 799.5,-919.5 799.5,-925.5 799.5,-925.5 799.5,-951.5 799.5,-951.5 799.5,-957.5 793.5,-963.5 787.5,-963.5"/>
<text text-anchor="middle" x="714.5" y="-941.5" font-family="Arial" font-size="10.00">HdlLibrary</text>
<text text-anchor="middle" x="714.5" y="-930.5" font-family="Arial" font-size="10.00">name: common_components_lib</text>
</g>
<!-- node_0&#45;&gt;node_3 -->
<g id="edge3" class="edge">
<title>node_0&#45;&gt;node_3</title>
<path fill="none" stroke="black" d="M843.79,-1026.79C819.26,-1010.23 783.14,-985.84 755.3,-967.05"/>
<polygon fill="black" stroke="black" points="756.35,-965.22 750.21,-963.61 754,-968.7 756.35,-965.22"/>
</g>
<!-- node_4 -->
<g id="node5" class="node">
<title>node_4</title>
<path fill="#546e7a" stroke="#333333" d="M895,-958C895,-958 848,-958 848,-958 842,-958 836,-952 836,-946 836,-946 836,-931 836,-931 836,-925 842,-919 848,-919 848,-919 895,-919 895,-919 901,-919 907,-925 907,-931 907,-931 907,-946 907,-946 907,-952 901,-958 895,-958"/>
<text text-anchor="middle" x="871.5" y="-936" font-family="Arial" font-size="10.00">HdlImport</text>
</g>
<!-- node_0&#45;&gt;node_4 -->
<g id="edge4" class="edge">
<title>node_0&#45;&gt;node_4</title>
<path fill="none" stroke="black" d="M871.5,-1026.55C871.5,-1009.21 871.5,-983.45 871.5,-964.45"/>
<polygon fill="black" stroke="black" points="873.6,-964.29 871.5,-958.29 869.4,-964.29 873.6,-964.29"/>
</g>
<!-- node_5 -->
<g id="node6" class="node">
<title>node_5</title>
<path fill="#546e7a" stroke="#333333" d="M1002,-958C1002,-958 955,-958 955,-958 949,-958 943,-952 943,-946 943,-946 943,-931 943,-931 943,-925 949,-919 955,-919 955,-919 1002,-919 1002,-919 1008,-919 1014,-925 1014,-931 1014,-931 1014,-946 1014,-946 1014,-952 1008,-958 1002,-958"/>
<text text-anchor="middle" x="978.5" y="-936" font-family="Arial" font-size="10.00">HdlImport</text>
</g>
<!-- node_0&#45;&gt;node_5 -->
<g id="edge5" class="edge">
<title>node_0&#45;&gt;node_5</title>
<path fill="none" stroke="black" d="M890.63,-1026.55C908.58,-1008.76 935.49,-982.1 954.8,-962.98"/>
<polygon fill="black" stroke="black" points="956.75,-964 959.54,-958.29 953.8,-961.02 956.75,-964"/>
</g>
<!-- node_6 -->
<g id="node7" class="node">
<title>node_6</title>
<path fill="#3949ab" stroke="#333333" d="M1176.5,-963.5C1176.5,-963.5 1062.5,-963.5 1062.5,-963.5 1056.5,-963.5 1050.5,-957.5 1050.5,-951.5 1050.5,-951.5 1050.5,-925.5 1050.5,-925.5 1050.5,-919.5 1056.5,-913.5 1062.5,-913.5 1062.5,-913.5 1176.5,-913.5 1176.5,-913.5 1182.5,-913.5 1188.5,-919.5 1188.5,-925.5 1188.5,-925.5 1188.5,-951.5 1188.5,-951.5 1188.5,-957.5 1182.5,-963.5 1176.5,-963.5"/>
<text text-anchor="middle" x="1119.5" y="-941.5" font-family="Arial" font-size="10.00">HdlModuleDec</text>
<text text-anchor="middle" x="1119.5" y="-930.5" font-family="Arial" font-size="10.00">name: common_add_sub</text>
</g>
<!-- node_0&#45;&gt;node_6 -->
<g id="edge6" class="edge">
<title>node_0&#45;&gt;node_6</title>
<path fill="none" stroke="black" d="M914.98,-1026.91C954.41,-1010.06 1012.99,-985.03 1057.36,-966.06"/>
<polygon fill="black" stroke="black" points="1058.28,-967.95 1062.97,-963.66 1056.63,-964.09 1058.28,-967.95"/>
</g>
<!-- node_19 -->
<g id="node20" class="node">
<title>node_19</title>
<path fill="#3949ab" stroke="#333333" d="M3545.5,-969C3545.5,-969 3423.5,-969 3423.5,-969 3417.5,-969 3411.5,-963 3411.5,-957 3411.5,-957 3411.5,-920 3411.5,-920 3411.5,-914 3417.5,-908 3423.5,-908 3423.5,-908 3545.5,-908 3545.5,-908 3551.5,-908 3557.5,-914 3557.5,-920 3557.5,-920 3557.5,-957 3557.5,-957 3557.5,-963 3551.5,-969 3545.5,-969"/>
<text text-anchor="middle" x="3484.5" y="-947" font-family="Arial" font-size="10.00">HdlModuleDef</text>
<text text-anchor="middle" x="3484.5" y="-936" font-family="Arial" font-size="10.00">name: add_sub</text>
<text text-anchor="middle" x="3484.5" y="-925" font-family="Arial" font-size="10.00">module: common_add_sub</text>
</g>
<!-- node_0&#45;&gt;node_19 -->
<g id="edge19" class="edge">
<title>node_0&#45;&gt;node_19</title>
<path fill="none" stroke="black" d="M935.12,-1042.92C1288.96,-1028.57 3012.75,-958.64 3404.98,-942.73"/>
<polygon fill="black" stroke="black" points="3405.3,-944.81 3411.21,-942.47 3405.13,-940.62 3405.3,-944.81"/>
</g>
<!-- node_7 -->
<g id="node8" class="node">
<title>node_7</title>
<path fill="#546e7a" stroke="#333333" d="M127,-828C127,-828 12,-828 12,-828 6,-828 0,-822 0,-816 0,-816 0,-757 0,-757 0,-751 6,-745 12,-745 12,-745 127,-745 127,-745 133,-745 139,-751 139,-757 139,-757 139,-816 139,-816 139,-822 133,-828 127,-828"/>
<text text-anchor="middle" x="69.5" y="-806" font-family="Arial" font-size="10.00">HdlIdDef</text>
<text text-anchor="middle" x="69.5" y="-795" font-family="Arial" font-size="10.00">name: g_direction</text>
<text text-anchor="middle" x="69.5" y="-784" font-family="Arial" font-size="10.00">direction: HdlDirection.IN</text>
<text text-anchor="middle" x="69.5" y="-773" font-family="Arial" font-size="10.00">type: STRING</text>
<text text-anchor="middle" x="69.5" y="-762" font-family="Arial" font-size="10.00">value: ADD</text>
</g>
<!-- node_6&#45;&gt;node_7 -->
<g id="edge7" class="edge">
<title>node_6&#45;&gt;node_7</title>
<path fill="none" stroke="black" d="M1050.16,-914.26C1039.26,-910.6 1031.5,-908 1031.5,-908 1031.5,-908 156.5,-850 156.5,-850 156.5,-850 145.35,-841.99 131.04,-831.71"/>
<polygon fill="black" stroke="black" points="132.17,-829.94 126.07,-828.14 129.72,-833.35 132.17,-829.94"/>
</g>
<!-- node_8 -->
<g id="node9" class="node">
<title>node_8</title>
<path fill="#546e7a" stroke="#333333" d="M302,-828C302,-828 187,-828 187,-828 181,-828 175,-822 175,-816 175,-816 175,-757 175,-757 175,-751 181,-745 187,-745 187,-745 302,-745 302,-745 308,-745 314,-751 314,-757 314,-757 314,-816 314,-816 314,-822 308,-828 302,-828"/>
<text text-anchor="middle" x="244.5" y="-806" font-family="Arial" font-size="10.00">HdlIdDef</text>
<text text-anchor="middle" x="244.5" y="-795" font-family="Arial" font-size="10.00">name: g_representation</text>
<text text-anchor="middle" x="244.5" y="-784" font-family="Arial" font-size="10.00">direction: HdlDirection.IN</text>
<text text-anchor="middle" x="244.5" y="-773" font-family="Arial" font-size="10.00">type: STRING</text>
<text text-anchor="middle" x="244.5" y="-762" font-family="Arial" font-size="10.00">value: SIGNED</text>
</g>
<!-- node_6&#45;&gt;node_8 -->
<g id="edge8" class="edge">
<title>node_6&#45;&gt;node_8</title>
<path fill="none" stroke="black" d="M1050.16,-914.26C1039.26,-910.6 1031.5,-908 1031.5,-908 1031.5,-908 331.5,-850 331.5,-850 331.5,-850 320.35,-841.99 306.04,-831.71"/>
<polygon fill="black" stroke="black" points="307.17,-829.94 301.07,-828.14 304.72,-833.35 307.17,-829.94"/>
</g>
<!-- node_9 -->
<g id="node10" class="node">
<title>node_9</title>
<path fill="#546e7a" stroke="#333333" d="M477,-828C477,-828 362,-828 362,-828 356,-828 350,-822 350,-816 350,-816 350,-757 350,-757 350,-751 356,-745 362,-745 362,-745 477,-745 477,-745 483,-745 489,-751 489,-757 489,-757 489,-816 489,-816 489,-822 483,-828 477,-828"/>
<text text-anchor="middle" x="419.5" y="-806" font-family="Arial" font-size="10.00">HdlIdDef</text>
<text text-anchor="middle" x="419.5" y="-795" font-family="Arial" font-size="10.00">name: g_pipeline_input</text>
<text text-anchor="middle" x="419.5" y="-784" font-family="Arial" font-size="10.00">direction: HdlDirection.IN</text>
<text text-anchor="middle" x="419.5" y="-773" font-family="Arial" font-size="10.00">type: NATURAL</text>
<text text-anchor="middle" x="419.5" y="-762" font-family="Arial" font-size="10.00">value: 0</text>
</g>
<!-- node_6&#45;&gt;node_9 -->
<g id="edge9" class="edge">
<title>node_6&#45;&gt;node_9</title>
<path fill="none" stroke="black" d="M1050.16,-914.26C1039.26,-910.6 1031.5,-908 1031.5,-908 1031.5,-908 506.5,-850 506.5,-850 506.5,-850 495.35,-841.99 481.04,-831.71"/>
<polygon fill="black" stroke="black" points="482.17,-829.94 476.07,-828.14 479.72,-833.35 482.17,-829.94"/>
</g>
<!-- node_10 -->
<g id="node11" class="node">
<title>node_10</title>
<path fill="#546e7a" stroke="#333333" d="M652,-828C652,-828 537,-828 537,-828 531,-828 525,-822 525,-816 525,-816 525,-757 525,-757 525,-751 531,-745 537,-745 537,-745 652,-745 652,-745 658,-745 664,-751 664,-757 664,-757 664,-816 664,-816 664,-822 658,-828 652,-828"/>
<text text-anchor="middle" x="594.5" y="-806" font-family="Arial" font-size="10.00">HdlIdDef</text>
<text text-anchor="middle" x="594.5" y="-795" font-family="Arial" font-size="10.00">name: g_pipeline_output</text>
<text text-anchor="middle" x="594.5" y="-784" font-family="Arial" font-size="10.00">direction: HdlDirection.IN</text>
<text text-anchor="middle" x="594.5" y="-773" font-family="Arial" font-size="10.00">type: NATURAL</text>
<text text-anchor="middle" x="594.5" y="-762" font-family="Arial" font-size="10.00">value: 1</text>
</g>
<!-- node_6&#45;&gt;node_10 -->
<g id="edge10" class="edge">
<title>node_6&#45;&gt;node_10</title>
<path fill="none" stroke="black" d="M1050.16,-914.26C1039.26,-910.6 1031.5,-908 1031.5,-908 1031.5,-908 681.5,-850 681.5,-850 681.5,-850 670.35,-841.99 656.04,-831.71"/>
<polygon fill="black" stroke="black" points="657.17,-829.94 651.07,-828.14 654.72,-833.35 657.17,-829.94"/>
</g>
<!-- node_11 -->
<g id="node12" class="node">
<title>node_11</title>
<path fill="#546e7a" stroke="#333333" d="M827,-828C827,-828 712,-828 712,-828 706,-828 700,-822 700,-816 700,-816 700,-757 700,-757 700,-751 706,-745 712,-745 712,-745 827,-745 827,-745 833,-745 839,-751 839,-757 839,-757 839,-816 839,-816 839,-822 833,-828 827,-828"/>
<text text-anchor="middle" x="769.5" y="-806" font-family="Arial" font-size="10.00">HdlIdDef</text>
<text text-anchor="middle" x="769.5" y="-795" font-family="Arial" font-size="10.00">name: g_in_dat_w</text>
<text text-anchor="middle" x="769.5" y="-784" font-family="Arial" font-size="10.00">direction: HdlDirection.IN</text>
<text text-anchor="middle" x="769.5" y="-773" font-family="Arial" font-size="10.00">type: NATURAL</text>
<text text-anchor="middle" x="769.5" y="-762" font-family="Arial" font-size="10.00">value: 8</text>
</g>
<!-- node_6&#45;&gt;node_11 -->
<g id="edge11" class="edge">
<title>node_6&#45;&gt;node_11</title>
<path fill="none" stroke="black" d="M1050.16,-914.26C1039.26,-910.6 1031.5,-908 1031.5,-908 1031.5,-908 856.5,-850 856.5,-850 856.5,-850 845.35,-841.99 831.04,-831.71"/>
<polygon fill="black" stroke="black" points="832.17,-829.94 826.07,-828.14 829.72,-833.35 832.17,-829.94"/>
</g>
<!-- node_12 -->
<g id="node13" class="node">
<title>node_12</title>
<path fill="#546e7a" stroke="#333333" d="M1002,-828C1002,-828 887,-828 887,-828 881,-828 875,-822 875,-816 875,-816 875,-757 875,-757 875,-751 881,-745 887,-745 887,-745 1002,-745 1002,-745 1008,-745 1014,-751 1014,-757 1014,-757 1014,-816 1014,-816 1014,-822 1008,-828 1002,-828"/>
<text text-anchor="middle" x="944.5" y="-806" font-family="Arial" font-size="10.00">HdlIdDef</text>
<text text-anchor="middle" x="944.5" y="-795" font-family="Arial" font-size="10.00">name: g_out_dat_w</text>
<text text-anchor="middle" x="944.5" y="-784" font-family="Arial" font-size="10.00">direction: HdlDirection.IN</text>
<text text-anchor="middle" x="944.5" y="-773" font-family="Arial" font-size="10.00">type: NATURAL</text>
<text text-anchor="middle" x="944.5" y="-762" font-family="Arial" font-size="10.00">value: 9</text>
</g>
<!-- node_6&#45;&gt;node_12 -->
<g id="edge12" class="edge">
<title>node_6&#45;&gt;node_12</title>
<path fill="none" stroke="black" d="M1091.38,-913.4C1065.98,-891.62 1027.93,-859.01 996.92,-832.43"/>
<polygon fill="black" stroke="black" points="997.93,-830.53 992.01,-828.22 995.2,-833.72 997.93,-830.53"/>
</g>
<!-- node_13 -->
<g id="node14" class="node">
<title>node_13</title>
<path fill="#546e7a" stroke="#333333" d="M1177,-828C1177,-828 1062,-828 1062,-828 1056,-828 1050,-822 1050,-816 1050,-816 1050,-757 1050,-757 1050,-751 1056,-745 1062,-745 1062,-745 1177,-745 1177,-745 1183,-745 1189,-751 1189,-757 1189,-757 1189,-816 1189,-816 1189,-822 1183,-828 1177,-828"/>
<text text-anchor="middle" x="1119.5" y="-806" font-family="Arial" font-size="10.00">HdlIdDef</text>
<text text-anchor="middle" x="1119.5" y="-795" font-family="Arial" font-size="10.00">name: clk</text>
<text text-anchor="middle" x="1119.5" y="-784" font-family="Arial" font-size="10.00">direction: HdlDirection.IN</text>
<text text-anchor="middle" x="1119.5" y="-773" font-family="Arial" font-size="10.00">type: STD_LOGIC</text>
<text text-anchor="middle" x="1119.5" y="-762" font-family="Arial" font-size="10.00">value: None</text>
</g>
<!-- node_6&#45;&gt;node_13 -->
<g id="edge13" class="edge">
<title>node_6&#45;&gt;node_13</title>
<path fill="none" stroke="black" d="M1119.5,-913.4C1119.5,-892.16 1119.5,-860.62 1119.5,-834.41"/>
<polygon fill="black" stroke="black" points="1121.6,-834.22 1119.5,-828.22 1117.4,-834.22 1121.6,-834.22"/>
</g>
<!-- node_14 -->
<g id="node15" class="node">
<title>node_14</title>
<path fill="#546e7a" stroke="#333333" d="M1352,-828C1352,-828 1237,-828 1237,-828 1231,-828 1225,-822 1225,-816 1225,-816 1225,-757 1225,-757 1225,-751 1231,-745 1237,-745 1237,-745 1352,-745 1352,-745 1358,-745 1364,-751 1364,-757 1364,-757 1364,-816 1364,-816 1364,-822 1358,-828 1352,-828"/>
<text text-anchor="middle" x="1294.5" y="-806" font-family="Arial" font-size="10.00">HdlIdDef</text>
<text text-anchor="middle" x="1294.5" y="-795" font-family="Arial" font-size="10.00">name: clken</text>
<text text-anchor="middle" x="1294.5" y="-784" font-family="Arial" font-size="10.00">direction: HdlDirection.IN</text>
<text text-anchor="middle" x="1294.5" y="-773" font-family="Arial" font-size="10.00">type: STD_LOGIC</text>
<text text-anchor="middle" x="1294.5" y="-762" font-family="Arial" font-size="10.00">value: 1</text>
</g>
<!-- node_6&#45;&gt;node_14 -->
<g id="edge14" class="edge">
<title>node_6&#45;&gt;node_14</title>
<path fill="none" stroke="black" d="M1147.62,-913.4C1173.02,-891.62 1211.07,-859.01 1242.08,-832.43"/>
<polygon fill="black" stroke="black" points="1243.8,-833.72 1246.99,-828.22 1241.07,-830.53 1243.8,-833.72"/>
</g>
<!-- node_15 -->
<g id="node16" class="node">
<title>node_15</title>
<path fill="#546e7a" stroke="#333333" d="M1527,-828C1527,-828 1412,-828 1412,-828 1406,-828 1400,-822 1400,-816 1400,-816 1400,-757 1400,-757 1400,-751 1406,-745 1412,-745 1412,-745 1527,-745 1527,-745 1533,-745 1539,-751 1539,-757 1539,-757 1539,-816 1539,-816 1539,-822 1533,-828 1527,-828"/>
<text text-anchor="middle" x="1469.5" y="-806" font-family="Arial" font-size="10.00">HdlIdDef</text>
<text text-anchor="middle" x="1469.5" y="-795" font-family="Arial" font-size="10.00">name: sel_add</text>
<text text-anchor="middle" x="1469.5" y="-784" font-family="Arial" font-size="10.00">direction: HdlDirection.IN</text>
<text text-anchor="middle" x="1469.5" y="-773" font-family="Arial" font-size="10.00">type: STD_LOGIC</text>
<text text-anchor="middle" x="1469.5" y="-762" font-family="Arial" font-size="10.00">value: 1</text>
</g>
<!-- node_6&#45;&gt;node_15 -->
<g id="edge15" class="edge">
<title>node_6&#45;&gt;node_15</title>
<path fill="none" stroke="black" d="M1188.68,-914.4C1266.3,-888.47 1381.5,-850 1381.5,-850 1381.5,-850 1392.78,-841.99 1407.26,-831.71"/>
<polygon fill="black" stroke="black" points="1408.6,-833.33 1412.28,-828.14 1406.17,-829.9 1408.6,-833.33"/>
</g>
<!-- node_16 -->
<g id="node17" class="node">
<title>node_16</title>
<path fill="#546e7a" stroke="#333333" d="M1715.5,-828C1715.5,-828 1587.5,-828 1587.5,-828 1581.5,-828 1575.5,-822 1575.5,-816 1575.5,-816 1575.5,-757 1575.5,-757 1575.5,-751 1581.5,-745 1587.5,-745 1587.5,-745 1715.5,-745 1715.5,-745 1721.5,-745 1727.5,-751 1727.5,-757 1727.5,-757 1727.5,-816 1727.5,-816 1727.5,-822 1721.5,-828 1715.5,-828"/>
<text text-anchor="middle" x="1651.5" y="-806" font-family="Arial" font-size="10.00">HdlIdDef</text>
<text text-anchor="middle" x="1651.5" y="-795" font-family="Arial" font-size="10.00">name: in_a</text>
<text text-anchor="middle" x="1651.5" y="-784" font-family="Arial" font-size="10.00">direction: HdlDirection.IN</text>
<text text-anchor="middle" x="1651.5" y="-773" font-family="Arial" font-size="10.00">type: HdlOpType.INDEX(...)</text>
<text text-anchor="middle" x="1651.5" y="-762" font-family="Arial" font-size="10.00">value: None</text>
</g>
<!-- node_6&#45;&gt;node_16 -->
<g id="edge16" class="edge">
<title>node_6&#45;&gt;node_16</title>
<path fill="none" stroke="black" d="M1188.74,-923.64C1311.97,-898.96 1556.5,-850 1556.5,-850 1556.5,-850 1568.89,-841.85 1584.71,-831.44"/>
<polygon fill="black" stroke="black" points="1585.87,-833.19 1589.73,-828.14 1583.56,-829.68 1585.87,-833.19"/>
</g>
<!-- node_17 -->
<g id="node18" class="node">
<title>node_17</title>
<path fill="#546e7a" stroke="#333333" d="M1903.5,-828C1903.5,-828 1775.5,-828 1775.5,-828 1769.5,-828 1763.5,-822 1763.5,-816 1763.5,-816 1763.5,-757 1763.5,-757 1763.5,-751 1769.5,-745 1775.5,-745 1775.5,-745 1903.5,-745 1903.5,-745 1909.5,-745 1915.5,-751 1915.5,-757 1915.5,-757 1915.5,-816 1915.5,-816 1915.5,-822 1909.5,-828 1903.5,-828"/>
<text text-anchor="middle" x="1839.5" y="-806" font-family="Arial" font-size="10.00">HdlIdDef</text>
<text text-anchor="middle" x="1839.5" y="-795" font-family="Arial" font-size="10.00">name: in_b</text>
<text text-anchor="middle" x="1839.5" y="-784" font-family="Arial" font-size="10.00">direction: HdlDirection.IN</text>
<text text-anchor="middle" x="1839.5" y="-773" font-family="Arial" font-size="10.00">type: HdlOpType.INDEX(...)</text>
<text text-anchor="middle" x="1839.5" y="-762" font-family="Arial" font-size="10.00">value: None</text>
</g>
<!-- node_6&#45;&gt;node_17 -->
<g id="edge17" class="edge">
<title>node_6&#45;&gt;node_17</title>
<path fill="none" stroke="black" d="M1188.58,-927.84C1351.39,-905.09 1745.5,-850 1745.5,-850 1745.5,-850 1757.55,-841.99 1773.01,-831.71"/>
<polygon fill="black" stroke="black" points="1774.54,-833.21 1778.38,-828.14 1772.22,-829.71 1774.54,-833.21"/>
</g>
<!-- node_18 -->
<g id="node19" class="node">
<title>node_18</title>
<path fill="#546e7a" stroke="#333333" d="M2091.5,-828C2091.5,-828 1963.5,-828 1963.5,-828 1957.5,-828 1951.5,-822 1951.5,-816 1951.5,-816 1951.5,-757 1951.5,-757 1951.5,-751 1957.5,-745 1963.5,-745 1963.5,-745 2091.5,-745 2091.5,-745 2097.5,-745 2103.5,-751 2103.5,-757 2103.5,-757 2103.5,-816 2103.5,-816 2103.5,-822 2097.5,-828 2091.5,-828"/>
<text text-anchor="middle" x="2027.5" y="-806" font-family="Arial" font-size="10.00">HdlIdDef</text>
<text text-anchor="middle" x="2027.5" y="-795" font-family="Arial" font-size="10.00">name: result</text>
<text text-anchor="middle" x="2027.5" y="-784" font-family="Arial" font-size="10.00">direction: HdlDirection.OUT</text>
<text text-anchor="middle" x="2027.5" y="-773" font-family="Arial" font-size="10.00">type: HdlOpType.INDEX(...)</text>
<text text-anchor="middle" x="2027.5" y="-762" font-family="Arial" font-size="10.00">value: None</text>
</g>
<!-- node_6&#45;&gt;node_18 -->
<g id="edge18" class="edge">
<title>node_6&#45;&gt;node_18</title>
<path fill="none" stroke="black" d="M1188.55,-930.08C1385.1,-908.95 1933.5,-850 1933.5,-850 1933.5,-850 1945.55,-841.99 1961.01,-831.71"/>
<polygon fill="black" stroke="black" points="1962.54,-833.21 1966.38,-828.14 1960.22,-829.71 1962.54,-833.21"/>
</g>
<!-- node_20 -->
<g id="node21" class="node">
<title>node_20</title>
<path fill="#546e7a" stroke="#333333" d="M2307,-828C2307,-828 2152,-828 2152,-828 2146,-828 2140,-822 2140,-816 2140,-816 2140,-757 2140,-757 2140,-751 2146,-745 2152,-745 2152,-745 2307,-745 2307,-745 2313,-745 2319,-751 2319,-757 2319,-757 2319,-816 2319,-816 2319,-822 2313,-828 2307,-828"/>
<text text-anchor="middle" x="2229.5" y="-806" font-family="Arial" font-size="10.00">HdlIdDef</text>
<text text-anchor="middle" x="2229.5" y="-795" font-family="Arial" font-size="10.00">name: c_res_w</text>
<text text-anchor="middle" x="2229.5" y="-784" font-family="Arial" font-size="10.00">direction: HdlDirection.INTERNAL</text>
<text text-anchor="middle" x="2229.5" y="-773" font-family="Arial" font-size="10.00">type: NATURAL</text>
<text text-anchor="middle" x="2229.5" y="-762" font-family="Arial" font-size="10.00">value: HdlOpType.ADD(...)</text>
</g>
<!-- node_19&#45;&gt;node_20 -->
<g id="edge20" class="edge">
<title>node_19&#45;&gt;node_20</title>
<path fill="none" stroke="black" d="M3411.38,-931.93C3158.51,-912.65 2336.5,-850 2336.5,-850 2336.5,-850 2322.31,-841.71 2304.26,-831.17"/>
<polygon fill="black" stroke="black" points="2305.32,-829.35 2299.08,-828.14 2303.2,-832.98 2305.32,-829.35"/>
</g>
<!-- node_21 -->
<g id="node22" class="node">
<title>node_21</title>
<path fill="#546e7a" stroke="#333333" d="M2612,-850C2612,-850 2367,-850 2367,-850 2361,-850 2355,-844 2355,-838 2355,-838 2355,-735 2355,-735 2355,-729 2361,-723 2367,-723 2367,-723 2612,-723 2612,-723 2618,-723 2624,-729 2624,-735 2624,-735 2624,-838 2624,-838 2624,-844 2618,-850 2612,-850"/>
<text text-anchor="middle" x="2489.5" y="-828" font-family="Arial" font-size="10.00">HdlIdDef</text>
<text text-anchor="middle" x="2489.5" y="-817" font-family="Arial" font-size="10.00">name: in_a_p</text>
<text text-anchor="middle" x="2489.5" y="-806" font-family="Arial" font-size="10.00">direction: HdlDirection.INTERNAL</text>
<text text-anchor="middle" x="2489.5" y="-795" font-family="Arial" font-size="10.00">type: HdlOpType.INDEX(...)</text>
<text text-anchor="middle" x="2489.5" y="-784" font-family="Arial" font-size="10.00">value: [{&#39;__class__&#39;: &#39;HdlOp&#39;,</text>
<text text-anchor="middle" x="2489.5" y="-773" font-family="Arial" font-size="10.00"> &#39;fn&#39;: &#39;MAP_ASSOCIATION&#39;,</text>
<text text-anchor="middle" x="2489.5" y="-762" font-family="Arial" font-size="10.00"> &#39;ops&#39;: [{&#39;__class__&#39;: &#39;HdlOthers&#39;},</text>
<text text-anchor="middle" x="2489.5" y="-751" font-family="Arial" font-size="10.00"> &#160;&#160;&#160;&#160;&#160;&#160;&#160;&#160;{&#39;__class__&#39;: &#39;HdlValueInt&#39;, &#39;base&#39;: 256, &#39;val&#39;: &#39;0&#39;}]}</text>
<text text-anchor="middle" x="2489.5" y="-740" font-family="Arial" font-size="10.00">]</text>
</g>
<!-- node_19&#45;&gt;node_21 -->
<g id="edge21" class="edge">
<title>node_19&#45;&gt;node_21</title>
<path fill="none" stroke="black" d="M3411.16,-929.89C3206.07,-908.6 2641.5,-850 2641.5,-850 2641.5,-850 2637.04,-848.16 2629.64,-845.12"/>
<polygon fill="black" stroke="black" points="2630.41,-843.17 2624.06,-842.83 2628.81,-847.05 2630.41,-843.17"/>
</g>
<!-- node_22 -->
<g id="node23" class="node">
<title>node_22</title>
<path fill="#546e7a" stroke="#333333" d="M2917,-850C2917,-850 2672,-850 2672,-850 2666,-850 2660,-844 2660,-838 2660,-838 2660,-735 2660,-735 2660,-729 2666,-723 2672,-723 2672,-723 2917,-723 2917,-723 2923,-723 2929,-729 2929,-735 2929,-735 2929,-838 2929,-838 2929,-844 2923,-850 2917,-850"/>
<text text-anchor="middle" x="2794.5" y="-828" font-family="Arial" font-size="10.00">HdlIdDef</text>
<text text-anchor="middle" x="2794.5" y="-817" font-family="Arial" font-size="10.00">name: in_b_p</text>
<text text-anchor="middle" x="2794.5" y="-806" font-family="Arial" font-size="10.00">direction: HdlDirection.INTERNAL</text>
<text text-anchor="middle" x="2794.5" y="-795" font-family="Arial" font-size="10.00">type: HdlOpType.INDEX(...)</text>
<text text-anchor="middle" x="2794.5" y="-784" font-family="Arial" font-size="10.00">value: [{&#39;__class__&#39;: &#39;HdlOp&#39;,</text>
<text text-anchor="middle" x="2794.5" y="-773" font-family="Arial" font-size="10.00"> &#39;fn&#39;: &#39;MAP_ASSOCIATION&#39;,</text>
<text text-anchor="middle" x="2794.5" y="-762" font-family="Arial" font-size="10.00"> &#39;ops&#39;: [{&#39;__class__&#39;: &#39;HdlOthers&#39;},</text>
<text text-anchor="middle" x="2794.5" y="-751" font-family="Arial" font-size="10.00"> &#160;&#160;&#160;&#160;&#160;&#160;&#160;&#160;{&#39;__class__&#39;: &#39;HdlValueInt&#39;, &#39;base&#39;: 256, &#39;val&#39;: &#39;0&#39;}]}</text>
<text text-anchor="middle" x="2794.5" y="-740" font-family="Arial" font-size="10.00">]</text>
</g>
<!-- node_19&#45;&gt;node_22 -->
<g id="edge22" class="edge">
<title>node_19&#45;&gt;node_22</title>
<path fill="none" stroke="black" d="M3411.38,-925.61C3264.28,-901.68 2946.5,-850 2946.5,-850 2946.5,-850 2942.04,-848.16 2934.64,-845.12"/>
<polygon fill="black" stroke="black" points="2935.41,-843.17 2929.06,-842.83 2933.81,-847.05 2935.41,-843.17"/>
</g>
<!-- node_23 -->
<g id="node24" class="node">
<title>node_23</title>
<path fill="#546e7a" stroke="#333333" d="M3132,-828C3132,-828 2977,-828 2977,-828 2971,-828 2965,-822 2965,-816 2965,-816 2965,-757 2965,-757 2965,-751 2971,-745 2977,-745 2977,-745 3132,-745 3132,-745 3138,-745 3144,-751 3144,-757 3144,-757 3144,-816 3144,-816 3144,-822 3138,-828 3132,-828"/>
<text text-anchor="middle" x="3054.5" y="-806" font-family="Arial" font-size="10.00">HdlIdDef</text>
<text text-anchor="middle" x="3054.5" y="-795" font-family="Arial" font-size="10.00">name: in_add</text>
<text text-anchor="middle" x="3054.5" y="-784" font-family="Arial" font-size="10.00">direction: HdlDirection.INTERNAL</text>
<text text-anchor="middle" x="3054.5" y="-773" font-family="Arial" font-size="10.00">type: STD_LOGIC</text>
<text text-anchor="middle" x="3054.5" y="-762" font-family="Arial" font-size="10.00">value: None</text>
</g>
<!-- node_19&#45;&gt;node_23 -->
<g id="edge23" class="edge">
<title>node_19&#45;&gt;node_23</title>
<path fill="none" stroke="black" d="M3411.21,-917.64C3315.91,-891.83 3161.5,-850 3161.5,-850 3161.5,-850 3147.31,-841.71 3129.26,-831.17"/>
<polygon fill="black" stroke="black" points="3130.32,-829.35 3124.08,-828.14 3128.2,-832.98 3130.32,-829.35"/>
</g>
<!-- node_24 -->
<g id="node25" class="node">
<title>node_24</title>
<path fill="#546e7a" stroke="#333333" d="M3347,-828C3347,-828 3192,-828 3192,-828 3186,-828 3180,-822 3180,-816 3180,-816 3180,-757 3180,-757 3180,-751 3186,-745 3192,-745 3192,-745 3347,-745 3347,-745 3353,-745 3359,-751 3359,-757 3359,-757 3359,-816 3359,-816 3359,-822 3353,-828 3347,-828"/>
<text text-anchor="middle" x="3269.5" y="-806" font-family="Arial" font-size="10.00">HdlIdDef</text>
<text text-anchor="middle" x="3269.5" y="-795" font-family="Arial" font-size="10.00">name: sel_add_p</text>
<text text-anchor="middle" x="3269.5" y="-784" font-family="Arial" font-size="10.00">direction: HdlDirection.INTERNAL</text>
<text text-anchor="middle" x="3269.5" y="-773" font-family="Arial" font-size="10.00">type: STD_LOGIC</text>
<text text-anchor="middle" x="3269.5" y="-762" font-family="Arial" font-size="10.00">value: None</text>
</g>
<!-- node_19&#45;&gt;node_24 -->
<g id="edge24" class="edge">
<title>node_19&#45;&gt;node_24</title>
<path fill="none" stroke="black" d="M3442.02,-907.86C3410.88,-886.14 3368.07,-856.27 3332.89,-831.73"/>
<polygon fill="black" stroke="black" points="3333.88,-829.86 3327.76,-828.15 3331.48,-833.3 3333.88,-829.86"/>
</g>
<!-- node_25 -->
<g id="node26" class="node">
<title>node_25</title>
<path fill="#546e7a" stroke="#333333" d="M3562,-828C3562,-828 3407,-828 3407,-828 3401,-828 3395,-822 3395,-816 3395,-816 3395,-757 3395,-757 3395,-751 3401,-745 3407,-745 3407,-745 3562,-745 3562,-745 3568,-745 3574,-751 3574,-757 3574,-757 3574,-816 3574,-816 3574,-822 3568,-828 3562,-828"/>
<text text-anchor="middle" x="3484.5" y="-806" font-family="Arial" font-size="10.00">HdlIdDef</text>
<text text-anchor="middle" x="3484.5" y="-795" font-family="Arial" font-size="10.00">name: result_p</text>
<text text-anchor="middle" x="3484.5" y="-784" font-family="Arial" font-size="10.00">direction: HdlDirection.INTERNAL</text>
<text text-anchor="middle" x="3484.5" y="-773" font-family="Arial" font-size="10.00">type: HdlOpType.INDEX(...)</text>
<text text-anchor="middle" x="3484.5" y="-762" font-family="Arial" font-size="10.00">value: None</text>
</g>
<!-- node_19&#45;&gt;node_25 -->
<g id="edge25" class="edge">
<title>node_19&#45;&gt;node_25</title>
<path fill="none" stroke="black" d="M3484.5,-907.86C3484.5,-886.85 3484.5,-858.22 3484.5,-834.16"/>
<polygon fill="black" stroke="black" points="3486.6,-834.15 3484.5,-828.15 3482.4,-834.15 3486.6,-834.15"/>
</g>
<!-- node_26 -->
<g id="node27" class="node">
<title>node_26</title>
<path fill="#546e7a" stroke="#333333" d="M3690.5,-806C3690.5,-806 3622.5,-806 3622.5,-806 3616.5,-806 3610.5,-800 3610.5,-794 3610.5,-794 3610.5,-779 3610.5,-779 3610.5,-773 3616.5,-767 3622.5,-767 3622.5,-767 3690.5,-767 3690.5,-767 3696.5,-767 3702.5,-773 3702.5,-779 3702.5,-779 3702.5,-794 3702.5,-794 3702.5,-800 3696.5,-806 3690.5,-806"/>
<text text-anchor="middle" x="3656.5" y="-784" font-family="Arial" font-size="10.00">HdlStmAssign</text>
</g>
<!-- node_19&#45;&gt;node_26 -->
<g id="edge26" class="edge">
<title>node_19&#45;&gt;node_26</title>
<path fill="none" stroke="black" d="M3520.73,-907.88C3551.77,-882.49 3591.5,-850 3591.5,-850 3591.5,-850 3613.9,-828.47 3632.39,-810.68"/>
<polygon fill="black" stroke="black" points="3634.13,-811.92 3637,-806.25 3631.22,-808.9 3634.13,-811.92"/>
</g>
<!-- node_27 -->
<g id="node28" class="node">
<title>node_27</title>
<path fill="#e53935" stroke="#333333" stroke-width="2" d="M4038.5,-811.5C4038.5,-811.5 3750.5,-811.5 3750.5,-811.5 3744.5,-811.5 3738.5,-805.5 3738.5,-799.5 3738.5,-799.5 3738.5,-773.5 3738.5,-773.5 3738.5,-767.5 3744.5,-761.5 3750.5,-761.5 3750.5,-761.5 4038.5,-761.5 4038.5,-761.5 4044.5,-761.5 4050.5,-767.5 4050.5,-773.5 4050.5,-773.5 4050.5,-799.5 4050.5,-799.5 4050.5,-805.5 4044.5,-811.5 4038.5,-811.5"/>
<text text-anchor="middle" x="3894.5" y="-789.5" font-family="Arial" font-size="10.00">GENERATE IF</text>
<text text-anchor="middle" x="3894.5" y="-778.5" font-family="Arial" font-size="10.00">Condition: {&#39;__class__&#39;: &#39;HdlOp&#39;, &#39;fn&#39;: &#39;EQ&#39;, &#39;ops&#39;: [&#39;g_pipeline_in...</text>
</g>
<!-- node_19&#45;&gt;node_27 -->
<g id="edge27" class="edge">
<title>node_19&#45;&gt;node_27</title>
<path fill="none" stroke="black" d="M3557.8,-910.68C3632.78,-883.25 3748.52,-840.91 3822.88,-813.7"/>
<polygon fill="black" stroke="black" points="3823.69,-815.64 3828.61,-811.61 3822.25,-811.7 3823.69,-815.64"/>
</g>
<!-- node_32 -->
<g id="node33" class="node">
<title>node_32</title>
<path fill="#e53935" stroke="#333333" stroke-width="2" d="M4386,-811.5C4386,-811.5 4099,-811.5 4099,-811.5 4093,-811.5 4087,-805.5 4087,-799.5 4087,-799.5 4087,-773.5 4087,-773.5 4087,-767.5 4093,-761.5 4099,-761.5 4099,-761.5 4386,-761.5 4386,-761.5 4392,-761.5 4398,-767.5 4398,-773.5 4398,-773.5 4398,-799.5 4398,-799.5 4398,-805.5 4392,-811.5 4386,-811.5"/>
<text text-anchor="middle" x="4242.5" y="-789.5" font-family="Arial" font-size="10.00">GENERATE IF</text>
<text text-anchor="middle" x="4242.5" y="-778.5" font-family="Arial" font-size="10.00">Condition: {&#39;__class__&#39;: &#39;HdlOp&#39;, &#39;fn&#39;: &#39;GT&#39;, &#39;ops&#39;: [&#39;g_pipeline_in...</text>
</g>
<!-- node_19&#45;&gt;node_32 -->
<g id="edge33" class="edge">
<title>node_19&#45;&gt;node_32</title>
<path fill="none" stroke="black" d="M3557.58,-926.55C3714.28,-903.07 4068.5,-850 4068.5,-850 4068.5,-850 4121.84,-830.84 4169.45,-813.74"/>
<polygon fill="black" stroke="black" points="4170.29,-815.67 4175.23,-811.66 4168.87,-811.72 4170.29,-815.67"/>
</g>
<!-- node_42 -->
<g id="node43" class="node">
<title>node_42</title>
<path fill="#e53935" stroke="#333333" stroke-width="2" d="M4591,-822.5C4591,-822.5 4446,-822.5 4446,-822.5 4440,-822.5 4434,-816.5 4434,-810.5 4434,-810.5 4434,-762.5 4434,-762.5 4434,-756.5 4440,-750.5 4446,-750.5 4446,-750.5 4591,-750.5 4591,-750.5 4597,-750.5 4603,-756.5 4603,-762.5 4603,-762.5 4603,-810.5 4603,-810.5 4603,-816.5 4597,-822.5 4591,-822.5"/>
<text text-anchor="middle" x="4518.5" y="-800.5" font-family="Arial" font-size="10.00">GENERATE IF</text>
<text text-anchor="middle" x="4518.5" y="-789.5" font-family="Arial" font-size="10.00">Condition: {&#39;__class__&#39;: &#39;HdlOp&#39;,</text>
<text text-anchor="middle" x="4518.5" y="-778.5" font-family="Arial" font-size="10.00"> &#39;fn&#39;: &#39;EQ&#39;,</text>
<text text-anchor="middle" x="4518.5" y="-767.5" font-family="Arial" font-size="10.00"> &#39;ops&#39;: [&#39;g_represent...</text>
</g>
<!-- node_19&#45;&gt;node_42 -->
<g id="edge46" class="edge">
<title>node_19&#45;&gt;node_42</title>
<path fill="none" stroke="black" d="M3557.55,-930.63C3777.03,-910.01 4415.5,-850 4415.5,-850 4415.5,-850 4434.1,-838.72 4455.49,-825.74"/>
<polygon fill="black" stroke="black" points="4456.64,-827.49 4460.68,-822.59 4454.46,-823.9 4456.64,-827.49"/>
</g>
<!-- node_44 -->
<g id="node45" class="node">
<title>node_44</title>
<path fill="#e53935" stroke="#333333" stroke-width="2" d="M4796,-822.5C4796,-822.5 4651,-822.5 4651,-822.5 4645,-822.5 4639,-816.5 4639,-810.5 4639,-810.5 4639,-762.5 4639,-762.5 4639,-756.5 4645,-750.5 4651,-750.5 4651,-750.5 4796,-750.5 4796,-750.5 4802,-750.5 4808,-756.5 4808,-762.5 4808,-762.5 4808,-810.5 4808,-810.5 4808,-816.5 4802,-822.5 4796,-822.5"/>
<text text-anchor="middle" x="4723.5" y="-800.5" font-family="Arial" font-size="10.00">GENERATE IF</text>
<text text-anchor="middle" x="4723.5" y="-789.5" font-family="Arial" font-size="10.00">Condition: {&#39;__class__&#39;: &#39;HdlOp&#39;,</text>
<text text-anchor="middle" x="4723.5" y="-778.5" font-family="Arial" font-size="10.00"> &#39;fn&#39;: &#39;EQ&#39;,</text>
<text text-anchor="middle" x="4723.5" y="-767.5" font-family="Arial" font-size="10.00"> &#39;ops&#39;: [&#39;g_represent...</text>
</g>
<!-- node_19&#45;&gt;node_44 -->
<g id="edge49" class="edge">
<title>node_19&#45;&gt;node_44</title>
<path fill="none" stroke="black" d="M3557.72,-931.86C3808.96,-912.51 4620.5,-850 4620.5,-850 4620.5,-850 4639.1,-838.72 4660.49,-825.74"/>
<polygon fill="black" stroke="black" points="4661.64,-827.49 4665.68,-822.59 4659.46,-823.9 4661.64,-827.49"/>
</g>
<!-- node_46 -->
<g id="node47" class="node">
<title>node_46</title>
<path fill="#7b1fa2" stroke="#333333" d="M4986.5,-817C4986.5,-817 4856.5,-817 4856.5,-817 4850.5,-817 4844.5,-811 4844.5,-805 4844.5,-805 4844.5,-768 4844.5,-768 4844.5,-762 4850.5,-756 4856.5,-756 4856.5,-756 4986.5,-756 4986.5,-756 4992.5,-756 4998.5,-762 4998.5,-768 4998.5,-768 4998.5,-805 4998.5,-805 4998.5,-811 4992.5,-817 4986.5,-817"/>
<text text-anchor="middle" x="4921.5" y="-795" font-family="Arial" font-size="10.00">HdlCompInst</text>
<text text-anchor="middle" x="4921.5" y="-784" font-family="Arial" font-size="10.00">name: u_output_pipe</text>
<text text-anchor="middle" x="4921.5" y="-773" font-family="Arial" font-size="10.00">module: HdlOpType.DOT(...)</text>
</g>
<!-- node_19&#45;&gt;node_46 -->
<g id="edge52" class="edge">
<title>node_19&#45;&gt;node_46</title>
<path fill="none" stroke="black" d="M3557.55,-932.73C3837.39,-914.47 4825.5,-850 4825.5,-850 4825.5,-850 4847.73,-835.53 4870.79,-820.51"/>
<polygon fill="black" stroke="black" points="4872.15,-822.14 4876.03,-817.1 4869.86,-818.62 4872.15,-822.14"/>
</g>
<!-- node_28 -->
<g id="node29" class="node">
<title>node_28</title>
<path fill="#546e7a" stroke="#333333" d="M3945.5,-665C3945.5,-665 3843.5,-665 3843.5,-665 3837.5,-665 3831.5,-659 3831.5,-653 3831.5,-653 3831.5,-627 3831.5,-627 3831.5,-621 3837.5,-615 3843.5,-615 3843.5,-615 3945.5,-615 3945.5,-615 3951.5,-615 3957.5,-621 3957.5,-627 3957.5,-627 3957.5,-653 3957.5,-653 3957.5,-659 3951.5,-665 3945.5,-665"/>
<text text-anchor="middle" x="3894.5" y="-643" font-family="Arial" font-size="10.00">HdlStmBlock</text>
<text text-anchor="middle" x="3894.5" y="-632" font-family="Arial" font-size="10.00">⚡ Generate Statement</text>
</g>
<!-- node_27&#45;&gt;node_28 -->
<g id="edge28" class="edge">
<title>node_27&#45;&gt;node_28</title>
<path fill="none" stroke="black" d="M3884.12,-761.31C3880.27,-736.62 3879.98,-698.22 3883.25,-671.46"/>
<polygon fill="black" stroke="black" points="3885.37,-671.5 3884.1,-665.26 3881.2,-670.92 3885.37,-671.5"/>
</g>
<!-- node_27&#45;&gt;node_28 -->
<g id="edge32" class="edge">
<title>node_27&#45;&gt;node_28</title>
<path fill="none" stroke="black" d="M3904.88,-761.31C3908.73,-736.62 3909.02,-698.22 3905.75,-671.46"/>
<polygon fill="black" stroke="black" points="3907.8,-670.92 3904.9,-665.26 3903.63,-671.5 3907.8,-670.92"/>
<text text-anchor="middle" x="3895.82" y="-719.19" font-family="Arial" font-size="9.00">then</text>
</g>
<!-- node_29 -->
<g id="node30" class="node">
<title>node_29</title>
<path fill="#546e7a" stroke="#333333" d="M3800.5,-551.5C3800.5,-551.5 3732.5,-551.5 3732.5,-551.5 3726.5,-551.5 3720.5,-545.5 3720.5,-539.5 3720.5,-539.5 3720.5,-524.5 3720.5,-524.5 3720.5,-518.5 3726.5,-512.5 3732.5,-512.5 3732.5,-512.5 3800.5,-512.5 3800.5,-512.5 3806.5,-512.5 3812.5,-518.5 3812.5,-524.5 3812.5,-524.5 3812.5,-539.5 3812.5,-539.5 3812.5,-545.5 3806.5,-551.5 3800.5,-551.5"/>
<text text-anchor="middle" x="3766.5" y="-529.5" font-family="Arial" font-size="10.00">HdlStmAssign</text>
</g>
<!-- node_28&#45;&gt;node_29 -->
<g id="edge29" class="edge">
<title>node_28&#45;&gt;node_29</title>
<path fill="none" stroke="black" d="M3865.45,-614.95C3843.92,-597.12 3814.78,-572.98 3793.7,-555.52"/>
<polygon fill="black" stroke="black" points="3795.02,-553.89 3789.06,-551.68 3792.34,-557.13 3795.02,-553.89"/>
</g>
<!-- node_30 -->
<g id="node31" class="node">
<title>node_30</title>
<path fill="#546e7a" stroke="#333333" d="M3928.5,-551.5C3928.5,-551.5 3860.5,-551.5 3860.5,-551.5 3854.5,-551.5 3848.5,-545.5 3848.5,-539.5 3848.5,-539.5 3848.5,-524.5 3848.5,-524.5 3848.5,-518.5 3854.5,-512.5 3860.5,-512.5 3860.5,-512.5 3928.5,-512.5 3928.5,-512.5 3934.5,-512.5 3940.5,-518.5 3940.5,-524.5 3940.5,-524.5 3940.5,-539.5 3940.5,-539.5 3940.5,-545.5 3934.5,-551.5 3928.5,-551.5"/>
<text text-anchor="middle" x="3894.5" y="-529.5" font-family="Arial" font-size="10.00">HdlStmAssign</text>
</g>
<!-- node_28&#45;&gt;node_30 -->
<g id="edge30" class="edge">
<title>node_28&#45;&gt;node_30</title>
<path fill="none" stroke="black" d="M3894.5,-614.95C3894.5,-597.86 3894.5,-575 3894.5,-557.76"/>
<polygon fill="black" stroke="black" points="3896.6,-557.68 3894.5,-551.68 3892.4,-557.68 3896.6,-557.68"/>
</g>
<!-- node_31 -->
<g id="node32" class="node">
<title>node_31</title>
<path fill="#546e7a" stroke="#333333" d="M4056.5,-551.5C4056.5,-551.5 3988.5,-551.5 3988.5,-551.5 3982.5,-551.5 3976.5,-545.5 3976.5,-539.5 3976.5,-539.5 3976.5,-524.5 3976.5,-524.5 3976.5,-518.5 3982.5,-512.5 3988.5,-512.5 3988.5,-512.5 4056.5,-512.5 4056.5,-512.5 4062.5,-512.5 4068.5,-518.5 4068.5,-524.5 4068.5,-524.5 4068.5,-539.5 4068.5,-539.5 4068.5,-545.5 4062.5,-551.5 4056.5,-551.5"/>
<text text-anchor="middle" x="4022.5" y="-529.5" font-family="Arial" font-size="10.00">HdlStmAssign</text>
</g>
<!-- node_28&#45;&gt;node_31 -->
<g id="edge31" class="edge">
<title>node_28&#45;&gt;node_31</title>
<path fill="none" stroke="black" d="M3923.55,-614.95C3945.08,-597.12 3974.22,-572.98 3995.3,-555.52"/>
<polygon fill="black" stroke="black" points="3996.66,-557.13 3999.94,-551.68 3993.98,-553.89 3996.66,-557.13"/>
</g>
<!-- node_33 -->
<g id="node34" class="node">
<title>node_33</title>
<path fill="#546e7a" stroke="#333333" d="M4279.5,-659.5C4279.5,-659.5 4205.5,-659.5 4205.5,-659.5 4199.5,-659.5 4193.5,-653.5 4193.5,-647.5 4193.5,-647.5 4193.5,-632.5 4193.5,-632.5 4193.5,-626.5 4199.5,-620.5 4205.5,-620.5 4205.5,-620.5 4279.5,-620.5 4279.5,-620.5 4285.5,-620.5 4291.5,-626.5 4291.5,-632.5 4291.5,-632.5 4291.5,-647.5 4291.5,-647.5 4291.5,-653.5 4285.5,-659.5 4279.5,-659.5"/>
<text text-anchor="middle" x="4242.5" y="-637.5" font-family="Arial" font-size="10.00">HdlStmProcess</text>
</g>
<!-- node_32&#45;&gt;node_33 -->
<g id="edge34" class="edge">
<title>node_32&#45;&gt;node_33</title>
<path fill="none" stroke="black" d="M4232.12,-761.31C4228,-734.83 4227.96,-692.59 4232.01,-665.85"/>
<polygon fill="black" stroke="black" points="4234.12,-666.01 4233.07,-659.74 4229.98,-665.29 4234.12,-666.01"/>
</g>
<!-- node_32&#45;&gt;node_33 -->
<g id="edge45" class="edge">
<title>node_32&#45;&gt;node_33</title>
<path fill="none" stroke="black" d="M4252.88,-761.31C4257,-734.83 4257.04,-692.59 4252.99,-665.85"/>
<polygon fill="black" stroke="black" points="4255.02,-665.29 4251.93,-659.74 4250.88,-666.01 4255.02,-665.29"/>
<text text-anchor="middle" x="4243.43" y="-716.38" font-family="Arial" font-size="9.00">then</text>
</g>
<!-- node_34 -->
<g id="node35" class="node">
<title>node_34</title>
<path fill="#546e7a" stroke="#333333" d="M4273.5,-551.5C4273.5,-551.5 4211.5,-551.5 4211.5,-551.5 4205.5,-551.5 4199.5,-545.5 4199.5,-539.5 4199.5,-539.5 4199.5,-524.5 4199.5,-524.5 4199.5,-518.5 4205.5,-512.5 4211.5,-512.5 4211.5,-512.5 4273.5,-512.5 4273.5,-512.5 4279.5,-512.5 4285.5,-518.5 4285.5,-524.5 4285.5,-524.5 4285.5,-539.5 4285.5,-539.5 4285.5,-545.5 4279.5,-551.5 4273.5,-551.5"/>
<text text-anchor="middle" x="4242.5" y="-529.5" font-family="Arial" font-size="10.00">HdlStmBlock</text>
</g>
<!-- node_33&#45;&gt;node_34 -->
<g id="edge35" class="edge">
<title>node_33&#45;&gt;node_34</title>
<path fill="none" stroke="black" d="M4242.5,-620.05C4242.5,-602.71 4242.5,-576.95 4242.5,-557.95"/>
<polygon fill="black" stroke="black" points="4244.6,-557.79 4242.5,-551.79 4240.4,-557.79 4244.6,-557.79"/>
</g>
<!-- node_35 -->
<g id="node36" class="node">
<title>node_35</title>
<path fill="#546e7a" stroke="#333333" d="M4264.5,-443.5C4264.5,-443.5 4220.5,-443.5 4220.5,-443.5 4214.5,-443.5 4208.5,-437.5 4208.5,-431.5 4208.5,-431.5 4208.5,-416.5 4208.5,-416.5 4208.5,-410.5 4214.5,-404.5 4220.5,-404.5 4220.5,-404.5 4264.5,-404.5 4264.5,-404.5 4270.5,-404.5 4276.5,-410.5 4276.5,-416.5 4276.5,-416.5 4276.5,-431.5 4276.5,-431.5 4276.5,-437.5 4270.5,-443.5 4264.5,-443.5"/>
<text text-anchor="middle" x="4242.5" y="-421.5" font-family="Arial" font-size="10.00">HdlStmIf</text>
</g>
<!-- node_34&#45;&gt;node_35 -->
<g id="edge36" class="edge">
<title>node_34&#45;&gt;node_35</title>
<path fill="none" stroke="black" d="M4242.5,-512.05C4242.5,-494.71 4242.5,-468.95 4242.5,-449.95"/>
<polygon fill="black" stroke="black" points="4244.6,-449.79 4242.5,-443.79 4240.4,-449.79 4244.6,-449.79"/>
</g>
<!-- node_36 -->
<g id="node37" class="node">
<title>node_36</title>
<path fill="#546e7a" stroke="#333333" d="M4273.5,-335.5C4273.5,-335.5 4211.5,-335.5 4211.5,-335.5 4205.5,-335.5 4199.5,-329.5 4199.5,-323.5 4199.5,-323.5 4199.5,-308.5 4199.5,-308.5 4199.5,-302.5 4205.5,-296.5 4211.5,-296.5 4211.5,-296.5 4273.5,-296.5 4273.5,-296.5 4279.5,-296.5 4285.5,-302.5 4285.5,-308.5 4285.5,-308.5 4285.5,-323.5 4285.5,-323.5 4285.5,-329.5 4279.5,-335.5 4273.5,-335.5"/>
<text text-anchor="middle" x="4242.5" y="-313.5" font-family="Arial" font-size="10.00">HdlStmBlock</text>
</g>
<!-- node_35&#45;&gt;node_36 -->
<g id="edge37" class="edge">
<title>node_35&#45;&gt;node_36</title>
<path fill="none" stroke="black" d="M4231.87,-404.05C4228.42,-386.71 4228.08,-360.95 4230.84,-341.95"/>
<polygon fill="black" stroke="black" points="4232.96,-342.06 4231.9,-335.79 4228.82,-341.35 4232.96,-342.06"/>
</g>
<!-- node_35&#45;&gt;node_36 -->
<g id="edge44" class="edge">
<title>node_35&#45;&gt;node_36</title>
<path fill="none" stroke="black" d="M4253.13,-404.05C4256.58,-386.71 4256.92,-360.95 4254.16,-341.95"/>
<polygon fill="black" stroke="black" points="4256.18,-341.35 4253.1,-335.79 4252.04,-342.06 4256.18,-341.35"/>
<text text-anchor="middle" x="4244.14" y="-375.8" font-family="Arial" font-size="9.00">then</text>
</g>
<!-- node_37 -->
<g id="node38" class="node">
<title>node_37</title>
<path fill="#546e7a" stroke="#333333" d="M4264.5,-233C4264.5,-233 4220.5,-233 4220.5,-233 4214.5,-233 4208.5,-227 4208.5,-221 4208.5,-221 4208.5,-206 4208.5,-206 4208.5,-200 4214.5,-194 4220.5,-194 4220.5,-194 4264.5,-194 4264.5,-194 4270.5,-194 4276.5,-200 4276.5,-206 4276.5,-206 4276.5,-221 4276.5,-221 4276.5,-227 4270.5,-233 4264.5,-233"/>
<text text-anchor="middle" x="4242.5" y="-211" font-family="Arial" font-size="10.00">HdlStmIf</text>
</g>
<!-- node_36&#45;&gt;node_37 -->
<g id="edge38" class="edge">
<title>node_36&#45;&gt;node_37</title>
<path fill="none" stroke="black" d="M4242.5,-296.1C4242.5,-280.09 4242.5,-257.03 4242.5,-239.5"/>
<polygon fill="black" stroke="black" points="4244.6,-239.32 4242.5,-233.32 4240.4,-239.32 4244.6,-239.32"/>
</g>
<!-- node_38 -->
<g id="node39" class="node">
<title>node_38</title>
<path fill="#546e7a" stroke="#333333" d="M4273.5,-136C4273.5,-136 4211.5,-136 4211.5,-136 4205.5,-136 4199.5,-130 4199.5,-124 4199.5,-124 4199.5,-109 4199.5,-109 4199.5,-103 4205.5,-97 4211.5,-97 4211.5,-97 4273.5,-97 4273.5,-97 4279.5,-97 4285.5,-103 4285.5,-109 4285.5,-109 4285.5,-124 4285.5,-124 4285.5,-130 4279.5,-136 4273.5,-136"/>
<text text-anchor="middle" x="4242.5" y="-114" font-family="Arial" font-size="10.00">HdlStmBlock</text>
</g>
<!-- node_37&#45;&gt;node_38 -->
<g id="edge39" class="edge">
<title>node_37&#45;&gt;node_38</title>
<path fill="none" stroke="black" d="M4231.49,-193.73C4228.56,-179.03 4228.21,-158.44 4230.47,-142.37"/>
<polygon fill="black" stroke="black" points="4232.57,-142.5 4231.5,-136.23 4228.43,-141.8 4232.57,-142.5"/>
</g>
<!-- node_37&#45;&gt;node_38 -->
<g id="edge43" class="edge">
<title>node_37&#45;&gt;node_38</title>
<path fill="none" stroke="black" d="M4253.51,-193.73C4256.44,-179.03 4256.79,-158.44 4254.53,-142.37"/>
<polygon fill="black" stroke="black" points="4256.57,-141.8 4253.5,-136.23 4252.43,-142.5 4256.57,-141.8"/>
<text text-anchor="middle" x="4244.52" y="-170.85" font-family="Arial" font-size="9.00">then</text>
</g>
<!-- node_39 -->
<g id="node40" class="node">
<title>node_39</title>
<path fill="#546e7a" stroke="#333333" d="M4148.5,-39C4148.5,-39 4080.5,-39 4080.5,-39 4074.5,-39 4068.5,-33 4068.5,-27 4068.5,-27 4068.5,-12 4068.5,-12 4068.5,-6 4074.5,0 4080.5,0 4080.5,0 4148.5,0 4148.5,0 4154.5,0 4160.5,-6 4160.5,-12 4160.5,-12 4160.5,-27 4160.5,-27 4160.5,-33 4154.5,-39 4148.5,-39"/>
<text text-anchor="middle" x="4114.5" y="-17" font-family="Arial" font-size="10.00">HdlStmAssign</text>
</g>
<!-- node_38&#45;&gt;node_39 -->
<g id="edge40" class="edge">
<title>node_38&#45;&gt;node_39</title>
<path fill="none" stroke="black" d="M4217.52,-96.96C4196.68,-81.5 4166.93,-59.41 4144.75,-42.95"/>
<polygon fill="black" stroke="black" points="4145.93,-41.21 4139.86,-39.32 4143.42,-44.58 4145.93,-41.21"/>
</g>
<!-- node_40 -->
<g id="node41" class="node">
<title>node_40</title>
<path fill="#546e7a" stroke="#333333" d="M4276.5,-39C4276.5,-39 4208.5,-39 4208.5,-39 4202.5,-39 4196.5,-33 4196.5,-27 4196.5,-27 4196.5,-12 4196.5,-12 4196.5,-6 4202.5,0 4208.5,0 4208.5,0 4276.5,0 4276.5,0 4282.5,0 4288.5,-6 4288.5,-12 4288.5,-12 4288.5,-27 4288.5,-27 4288.5,-33 4282.5,-39 4276.5,-39"/>
<text text-anchor="middle" x="4242.5" y="-17" font-family="Arial" font-size="10.00">HdlStmAssign</text>
</g>
<!-- node_38&#45;&gt;node_40 -->
<g id="edge41" class="edge">
<title>node_38&#45;&gt;node_40</title>
<path fill="none" stroke="black" d="M4242.5,-96.73C4242.5,-82.03 4242.5,-61.44 4242.5,-45.37"/>
<polygon fill="black" stroke="black" points="4244.6,-45.23 4242.5,-39.23 4240.4,-45.23 4244.6,-45.23"/>
</g>
<!-- node_41 -->
<g id="node42" class="node">
<title>node_41</title>
<path fill="#546e7a" stroke="#333333" d="M4404.5,-39C4404.5,-39 4336.5,-39 4336.5,-39 4330.5,-39 4324.5,-33 4324.5,-27 4324.5,-27 4324.5,-12 4324.5,-12 4324.5,-6 4330.5,0 4336.5,0 4336.5,0 4404.5,0 4404.5,0 4410.5,0 4416.5,-6 4416.5,-12 4416.5,-12 4416.5,-27 4416.5,-27 4416.5,-33 4410.5,-39 4404.5,-39"/>
<text text-anchor="middle" x="4370.5" y="-17" font-family="Arial" font-size="10.00">HdlStmAssign</text>
</g>
<!-- node_38&#45;&gt;node_41 -->
<g id="edge42" class="edge">
<title>node_38&#45;&gt;node_41</title>
<path fill="none" stroke="black" d="M4267.48,-96.96C4288.32,-81.5 4318.07,-59.41 4340.25,-42.95"/>
<polygon fill="black" stroke="black" points="4341.58,-44.58 4345.14,-39.32 4339.07,-41.21 4341.58,-44.58"/>
</g>
<!-- node_43 -->
<g id="node44" class="node">
<title>node_43</title>
<path fill="#546e7a" stroke="#333333" d="M4552.5,-659.5C4552.5,-659.5 4484.5,-659.5 4484.5,-659.5 4478.5,-659.5 4472.5,-653.5 4472.5,-647.5 4472.5,-647.5 4472.5,-632.5 4472.5,-632.5 4472.5,-626.5 4478.5,-620.5 4484.5,-620.5 4484.5,-620.5 4552.5,-620.5 4552.5,-620.5 4558.5,-620.5 4564.5,-626.5 4564.5,-632.5 4564.5,-632.5 4564.5,-647.5 4564.5,-647.5 4564.5,-653.5 4558.5,-659.5 4552.5,-659.5"/>
<text text-anchor="middle" x="4518.5" y="-637.5" font-family="Arial" font-size="10.00">HdlStmAssign</text>
</g>
<!-- node_42&#45;&gt;node_43 -->
<g id="edge47" class="edge">
<title>node_42&#45;&gt;node_43</title>
<path fill="none" stroke="black" d="M4506.71,-750.15C4504.05,-723.92 4504.5,-688.82 4508.05,-665.59"/>
<polygon fill="black" stroke="black" points="4510.13,-665.93 4509.08,-659.66 4505.99,-665.21 4510.13,-665.93"/>
</g>
<!-- node_42&#45;&gt;node_43 -->
<g id="edge48" class="edge">
<title>node_42&#45;&gt;node_43</title>
<path fill="none" stroke="black" d="M4530.29,-750.15C4532.95,-723.92 4532.5,-688.82 4528.95,-665.59"/>
<polygon fill="black" stroke="black" points="4531.01,-665.21 4527.92,-659.66 4526.87,-665.93 4531.01,-665.21"/>
<text text-anchor="middle" x="4520.12" y="-710.67" font-family="Arial" font-size="9.00">then</text>
</g>
<!-- node_45 -->
<g id="node46" class="node">
<title>node_45</title>
<path fill="#546e7a" stroke="#333333" d="M4757.5,-659.5C4757.5,-659.5 4689.5,-659.5 4689.5,-659.5 4683.5,-659.5 4677.5,-653.5 4677.5,-647.5 4677.5,-647.5 4677.5,-632.5 4677.5,-632.5 4677.5,-626.5 4683.5,-620.5 4689.5,-620.5 4689.5,-620.5 4757.5,-620.5 4757.5,-620.5 4763.5,-620.5 4769.5,-626.5 4769.5,-632.5 4769.5,-632.5 4769.5,-647.5 4769.5,-647.5 4769.5,-653.5 4763.5,-659.5 4757.5,-659.5"/>
<text text-anchor="middle" x="4723.5" y="-637.5" font-family="Arial" font-size="10.00">HdlStmAssign</text>
</g>
<!-- node_44&#45;&gt;node_45 -->
<g id="edge50" class="edge">
<title>node_44&#45;&gt;node_45</title>
<path fill="none" stroke="black" d="M4711.71,-750.15C4709.05,-723.92 4709.5,-688.82 4713.05,-665.59"/>
<polygon fill="black" stroke="black" points="4715.13,-665.93 4714.08,-659.66 4710.99,-665.21 4715.13,-665.93"/>
</g>
<!-- node_44&#45;&gt;node_45 -->
<g id="edge51" class="edge">
<title>node_44&#45;&gt;node_45</title>
<path fill="none" stroke="black" d="M4735.29,-750.15C4737.95,-723.92 4737.5,-688.82 4733.95,-665.59"/>
<polygon fill="black" stroke="black" points="4736.01,-665.21 4732.92,-659.66 4731.87,-665.93 4736.01,-665.21"/>
<text text-anchor="middle" x="4725.12" y="-710.67" font-family="Arial" font-size="9.00">then</text>
</g>
<!-- node_47 -->
<g id="node48" class="node">
<title>node_47</title>
<path fill="#f57c00" stroke="#333333" d="M4944.5,-659.5C4944.5,-659.5 4866.5,-659.5 4866.5,-659.5 4860.5,-659.5 4854.5,-653.5 4854.5,-647.5 4854.5,-647.5 4854.5,-632.5 4854.5,-632.5 4854.5,-626.5 4860.5,-620.5 4866.5,-620.5 4866.5,-620.5 4944.5,-620.5 4944.5,-620.5 4950.5,-620.5 4956.5,-626.5 4956.5,-632.5 4956.5,-632.5 4956.5,-647.5 4956.5,-647.5 4956.5,-653.5 4950.5,-659.5 4944.5,-659.5"/>
<text text-anchor="middle" x="4905.5" y="-637.5" font-family="Arial" font-size="10.00">Generic Mapping</text>
</g>
<!-- node_46&#45;&gt;node_47 -->
<g id="edge53" class="edge">
<title>node_46&#45;&gt;node_47</title>
<path fill="none" stroke="black" d="M4918.22,-755.91C4915.27,-729.27 4910.99,-690.57 4908.22,-665.59"/>
<polygon fill="black" stroke="black" points="4910.3,-665.28 4907.55,-659.55 4906.13,-665.75 4910.3,-665.28"/>
<text text-anchor="middle" x="4887.22" y="-713.55" font-family="Arial" font-size="9.00">generic map</text>
</g>
<!-- node_64 -->
<g id="node65" class="node">
<title>node_64</title>
<path fill="#43a047" stroke="#333333" d="M5750.5,-659.5C5750.5,-659.5 5688.5,-659.5 5688.5,-659.5 5682.5,-659.5 5676.5,-653.5 5676.5,-647.5 5676.5,-647.5 5676.5,-632.5 5676.5,-632.5 5676.5,-626.5 5682.5,-620.5 5688.5,-620.5 5688.5,-620.5 5750.5,-620.5 5750.5,-620.5 5756.5,-620.5 5762.5,-626.5 5762.5,-632.5 5762.5,-632.5 5762.5,-647.5 5762.5,-647.5 5762.5,-653.5 5756.5,-659.5 5750.5,-659.5"/>
<text text-anchor="middle" x="5719.5" y="-637.5" font-family="Arial" font-size="10.00">Port Mapping</text>
</g>
<!-- node_46&#45;&gt;node_64 -->
<g id="edge70" class="edge">
<title>node_46&#45;&gt;node_64</title>
<path fill="none" stroke="black" d="M4998.74,-771.51C5161.42,-742.06 5535.39,-674.34 5670.05,-649.95"/>
<polygon fill="black" stroke="black" points="5670.75,-651.96 5676.28,-648.83 5670,-647.83 5670.75,-651.96"/>
<text text-anchor="middle" x="5315.89" y="-713.53" font-family="Arial" font-size="9.00">port map</text>
</g>
<!-- node_48 -->
<g id="node49" class="node">
<title>node_48</title>
<path fill="#546e7a" stroke="#333333" d="M4534.5,-557C4534.5,-557 4424.5,-557 4424.5,-557 4418.5,-557 4412.5,-551 4412.5,-545 4412.5,-545 4412.5,-519 4412.5,-519 4412.5,-513 4418.5,-507 4424.5,-507 4424.5,-507 4534.5,-507 4534.5,-507 4540.5,-507 4546.5,-513 4546.5,-519 4546.5,-519 4546.5,-545 4546.5,-545 4546.5,-551 4540.5,-557 4534.5,-557"/>
<text text-anchor="middle" x="4479.5" y="-535" font-family="Arial" font-size="10.00">HdlOp</text>
<text text-anchor="middle" x="4479.5" y="-524" font-family="Arial" font-size="10.00">fn: HdlOpType.ARROW</text>
</g>
<!-- node_47&#45;&gt;node_48 -->
<g id="edge54" class="edge">
<title>node_47&#45;&gt;node_48</title>
<path fill="none" stroke="black" d="M4854.11,-626.21C4778.94,-607.51 4638.62,-572.59 4552.68,-551.21"/>
<polygon fill="black" stroke="black" points="4553.18,-549.17 4546.85,-549.76 4552.16,-553.24 4553.18,-549.17"/>
</g>
<!-- node_51 -->
<g id="node52" class="node">
<title>node_51</title>
<path fill="#546e7a" stroke="#333333" d="M4758.5,-557C4758.5,-557 4648.5,-557 4648.5,-557 4642.5,-557 4636.5,-551 4636.5,-545 4636.5,-545 4636.5,-519 4636.5,-519 4636.5,-513 4642.5,-507 4648.5,-507 4648.5,-507 4758.5,-507 4758.5,-507 4764.5,-507 4770.5,-513 4770.5,-519 4770.5,-519 4770.5,-545 4770.5,-545 4770.5,-551 4764.5,-557 4758.5,-557"/>
<text text-anchor="middle" x="4703.5" y="-535" font-family="Arial" font-size="10.00">HdlOp</text>
<text text-anchor="middle" x="4703.5" y="-524" font-family="Arial" font-size="10.00">fn: HdlOpType.ARROW</text>
</g>
<!-- node_47&#45;&gt;node_51 -->
<g id="edge57" class="edge">
<title>node_47&#45;&gt;node_51</title>
<path fill="none" stroke="black" d="M4869.85,-620.29C4838.03,-603.59 4791.04,-578.93 4755.11,-560.08"/>
<polygon fill="black" stroke="black" points="4755.73,-558.04 4749.44,-557.11 4753.78,-561.75 4755.73,-558.04"/>
</g>
<!-- node_54 -->
<g id="node55" class="node">
<title>node_54</title>
<path fill="#546e7a" stroke="#333333" d="M4960.5,-557C4960.5,-557 4850.5,-557 4850.5,-557 4844.5,-557 4838.5,-551 4838.5,-545 4838.5,-545 4838.5,-519 4838.5,-519 4838.5,-513 4844.5,-507 4850.5,-507 4850.5,-507 4960.5,-507 4960.5,-507 4966.5,-507 4972.5,-513 4972.5,-519 4972.5,-519 4972.5,-545 4972.5,-545 4972.5,-551 4966.5,-557 4960.5,-557"/>
<text text-anchor="middle" x="4905.5" y="-535" font-family="Arial" font-size="10.00">HdlOp</text>
<text text-anchor="middle" x="4905.5" y="-524" font-family="Arial" font-size="10.00">fn: HdlOpType.ARROW</text>
</g>
<!-- node_47&#45;&gt;node_54 -->
<g id="edge60" class="edge">
<title>node_47&#45;&gt;node_54</title>
<path fill="none" stroke="black" d="M4905.5,-620.05C4905.5,-604.32 4905.5,-581.65 4905.5,-563.39"/>
<polygon fill="black" stroke="black" points="4907.6,-563.38 4905.5,-557.38 4903.4,-563.38 4907.6,-563.38"/>
</g>
<!-- node_59 -->
<g id="node60" class="node">
<title>node_59</title>
<path fill="#546e7a" stroke="#333333" d="M5182.5,-557C5182.5,-557 5072.5,-557 5072.5,-557 5066.5,-557 5060.5,-551 5060.5,-545 5060.5,-545 5060.5,-519 5060.5,-519 5060.5,-513 5066.5,-507 5072.5,-507 5072.5,-507 5182.5,-507 5182.5,-507 5188.5,-507 5194.5,-513 5194.5,-519 5194.5,-519 5194.5,-545 5194.5,-545 5194.5,-551 5188.5,-557 5182.5,-557"/>
<text text-anchor="middle" x="5127.5" y="-535" font-family="Arial" font-size="10.00">HdlOp</text>
<text text-anchor="middle" x="5127.5" y="-524" font-family="Arial" font-size="10.00">fn: HdlOpType.ARROW</text>
</g>
<!-- node_47&#45;&gt;node_59 -->
<g id="edge65" class="edge">
<title>node_47&#45;&gt;node_59</title>
<path fill="none" stroke="black" d="M4944.42,-620.41C4979.51,-603.66 5031.51,-578.83 5071.14,-559.91"/>
<polygon fill="black" stroke="black" points="5072.39,-561.64 5076.89,-557.16 5070.58,-557.85 5072.39,-561.64"/>
</g>
<!-- node_49 -->
<g id="node50" class="node">
<title>node_49</title>
<path fill="#546e7a" stroke="#333333" d="M4393.5,-443.5C4393.5,-443.5 4341.5,-443.5 4341.5,-443.5 4335.5,-443.5 4329.5,-437.5 4329.5,-431.5 4329.5,-431.5 4329.5,-416.5 4329.5,-416.5 4329.5,-410.5 4335.5,-404.5 4341.5,-404.5 4341.5,-404.5 4393.5,-404.5 4393.5,-404.5 4399.5,-404.5 4405.5,-410.5 4405.5,-416.5 4405.5,-416.5 4405.5,-431.5 4405.5,-431.5 4405.5,-437.5 4399.5,-443.5 4393.5,-443.5"/>
<text text-anchor="middle" x="4367.5" y="-421.5" font-family="Arial" font-size="10.00">HdlValueId</text>
</g>
<!-- node_48&#45;&gt;node_49 -->
<g id="edge55" class="edge">
<title>node_48&#45;&gt;node_49</title>
<path fill="none" stroke="black" d="M4454.09,-506.95C4435.4,-489.27 4410.17,-465.38 4391.76,-447.96"/>
<polygon fill="black" stroke="black" points="4393.04,-446.28 4387.24,-443.68 4390.15,-449.33 4393.04,-446.28"/>
</g>
<!-- node_50 -->
<g id="node51" class="node">
<title>node_50</title>
<path fill="#546e7a" stroke="#333333" d="M4505.5,-443.5C4505.5,-443.5 4453.5,-443.5 4453.5,-443.5 4447.5,-443.5 4441.5,-437.5 4441.5,-431.5 4441.5,-431.5 4441.5,-416.5 4441.5,-416.5 4441.5,-410.5 4447.5,-404.5 4453.5,-404.5 4453.5,-404.5 4505.5,-404.5 4505.5,-404.5 4511.5,-404.5 4517.5,-410.5 4517.5,-416.5 4517.5,-416.5 4517.5,-431.5 4517.5,-431.5 4517.5,-437.5 4511.5,-443.5 4505.5,-443.5"/>
<text text-anchor="middle" x="4479.5" y="-421.5" font-family="Arial" font-size="10.00">HdlValueId</text>
</g>
<!-- node_48&#45;&gt;node_50 -->
<g id="edge56" class="edge">
<title>node_48&#45;&gt;node_50</title>
<path fill="none" stroke="black" d="M4479.5,-506.95C4479.5,-489.86 4479.5,-467 4479.5,-449.76"/>
<polygon fill="black" stroke="black" points="4481.6,-449.68 4479.5,-443.68 4477.4,-449.68 4481.6,-449.68"/>
</g>
<!-- node_52 -->
<g id="node53" class="node">
<title>node_52</title>
<path fill="#546e7a" stroke="#333333" d="M4617.5,-443.5C4617.5,-443.5 4565.5,-443.5 4565.5,-443.5 4559.5,-443.5 4553.5,-437.5 4553.5,-431.5 4553.5,-431.5 4553.5,-416.5 4553.5,-416.5 4553.5,-410.5 4559.5,-404.5 4565.5,-404.5 4565.5,-404.5 4617.5,-404.5 4617.5,-404.5 4623.5,-404.5 4629.5,-410.5 4629.5,-416.5 4629.5,-416.5 4629.5,-431.5 4629.5,-431.5 4629.5,-437.5 4623.5,-443.5 4617.5,-443.5"/>
<text text-anchor="middle" x="4591.5" y="-421.5" font-family="Arial" font-size="10.00">HdlValueId</text>
</g>
<!-- node_51&#45;&gt;node_52 -->
<g id="edge58" class="edge">
<title>node_51&#45;&gt;node_52</title>
<path fill="none" stroke="black" d="M4678.09,-506.95C4659.4,-489.27 4634.17,-465.38 4615.76,-447.96"/>
<polygon fill="black" stroke="black" points="4617.04,-446.28 4611.24,-443.68 4614.15,-449.33 4617.04,-446.28"/>
</g>
<!-- node_53 -->
<g id="node54" class="node">
<title>node_53</title>
<path fill="#546e7a" stroke="#333333" d="M4729.5,-443.5C4729.5,-443.5 4677.5,-443.5 4677.5,-443.5 4671.5,-443.5 4665.5,-437.5 4665.5,-431.5 4665.5,-431.5 4665.5,-416.5 4665.5,-416.5 4665.5,-410.5 4671.5,-404.5 4677.5,-404.5 4677.5,-404.5 4729.5,-404.5 4729.5,-404.5 4735.5,-404.5 4741.5,-410.5 4741.5,-416.5 4741.5,-416.5 4741.5,-431.5 4741.5,-431.5 4741.5,-437.5 4735.5,-443.5 4729.5,-443.5"/>
<text text-anchor="middle" x="4703.5" y="-421.5" font-family="Arial" font-size="10.00">HdlValueId</text>
</g>
<!-- node_51&#45;&gt;node_53 -->
<g id="edge59" class="edge">
<title>node_51&#45;&gt;node_53</title>
<path fill="none" stroke="black" d="M4703.5,-506.95C4703.5,-489.86 4703.5,-467 4703.5,-449.76"/>
<polygon fill="black" stroke="black" points="4705.6,-449.68 4703.5,-443.68 4701.4,-449.68 4705.6,-449.68"/>
</g>
<!-- node_55 -->
<g id="node56" class="node">
<title>node_55</title>
<path fill="#546e7a" stroke="#333333" d="M4841.5,-443.5C4841.5,-443.5 4789.5,-443.5 4789.5,-443.5 4783.5,-443.5 4777.5,-437.5 4777.5,-431.5 4777.5,-431.5 4777.5,-416.5 4777.5,-416.5 4777.5,-410.5 4783.5,-404.5 4789.5,-404.5 4789.5,-404.5 4841.5,-404.5 4841.5,-404.5 4847.5,-404.5 4853.5,-410.5 4853.5,-416.5 4853.5,-416.5 4853.5,-431.5 4853.5,-431.5 4853.5,-437.5 4847.5,-443.5 4841.5,-443.5"/>
<text text-anchor="middle" x="4815.5" y="-421.5" font-family="Arial" font-size="10.00">HdlValueId</text>
</g>
<!-- node_54&#45;&gt;node_55 -->
<g id="edge61" class="edge">
<title>node_54&#45;&gt;node_55</title>
<path fill="none" stroke="black" d="M4885.08,-506.95C4870.19,-489.42 4850.13,-465.79 4835.37,-448.41"/>
<polygon fill="black" stroke="black" points="4836.85,-446.9 4831.36,-443.68 4833.64,-449.61 4836.85,-446.9"/>
</g>
<!-- node_56 -->
<g id="node57" class="node">
<title>node_56</title>
<path fill="#546e7a" stroke="#333333" d="M5041.5,-449C5041.5,-449 4901.5,-449 4901.5,-449 4895.5,-449 4889.5,-443 4889.5,-437 4889.5,-437 4889.5,-411 4889.5,-411 4889.5,-405 4895.5,-399 4901.5,-399 4901.5,-399 5041.5,-399 5041.5,-399 5047.5,-399 5053.5,-405 5053.5,-411 5053.5,-411 5053.5,-437 5053.5,-437 5053.5,-443 5047.5,-449 5041.5,-449"/>
<text text-anchor="middle" x="4971.5" y="-427" font-family="Arial" font-size="10.00">HdlOp</text>
<text text-anchor="middle" x="4971.5" y="-416" font-family="Arial" font-size="10.00">fn: HdlOpType.APOSTROPHE</text>
</g>
<!-- node_54&#45;&gt;node_56 -->
<g id="edge62" class="edge">
<title>node_54&#45;&gt;node_56</title>
<path fill="none" stroke="black" d="M4920.48,-506.95C4930.11,-491.47 4942.71,-471.25 4952.97,-454.76"/>
<polygon fill="black" stroke="black" points="4954.97,-455.53 4956.35,-449.32 4951.4,-453.31 4954.97,-455.53"/>
</g>
<!-- node_57 -->
<g id="node58" class="node">
<title>node_57</title>
<path fill="#546e7a" stroke="#333333" d="M4941.5,-335.5C4941.5,-335.5 4889.5,-335.5 4889.5,-335.5 4883.5,-335.5 4877.5,-329.5 4877.5,-323.5 4877.5,-323.5 4877.5,-308.5 4877.5,-308.5 4877.5,-302.5 4883.5,-296.5 4889.5,-296.5 4889.5,-296.5 4941.5,-296.5 4941.5,-296.5 4947.5,-296.5 4953.5,-302.5 4953.5,-308.5 4953.5,-308.5 4953.5,-323.5 4953.5,-323.5 4953.5,-329.5 4947.5,-335.5 4941.5,-335.5"/>
<text text-anchor="middle" x="4915.5" y="-313.5" font-family="Arial" font-size="10.00">HdlValueId</text>
</g>
<!-- node_56&#45;&gt;node_57 -->
<g id="edge63" class="edge">
<title>node_56&#45;&gt;node_57</title>
<path fill="none" stroke="black" d="M4958.79,-398.95C4949.69,-381.71 4937.47,-358.59 4928.34,-341.3"/>
<polygon fill="black" stroke="black" points="4930.03,-340.01 4925.37,-335.68 4926.32,-341.97 4930.03,-340.01"/>
</g>
<!-- node_58 -->
<g id="node59" class="node">
<title>node_58</title>
<path fill="#546e7a" stroke="#333333" d="M5053.5,-335.5C5053.5,-335.5 5001.5,-335.5 5001.5,-335.5 4995.5,-335.5 4989.5,-329.5 4989.5,-323.5 4989.5,-323.5 4989.5,-308.5 4989.5,-308.5 4989.5,-302.5 4995.5,-296.5 5001.5,-296.5 5001.5,-296.5 5053.5,-296.5 5053.5,-296.5 5059.5,-296.5 5065.5,-302.5 5065.5,-308.5 5065.5,-308.5 5065.5,-323.5 5065.5,-323.5 5065.5,-329.5 5059.5,-335.5 5053.5,-335.5"/>
<text text-anchor="middle" x="5027.5" y="-313.5" font-family="Arial" font-size="10.00">HdlValueId</text>
</g>
<!-- node_56&#45;&gt;node_58 -->
<g id="edge64" class="edge">
<title>node_56&#45;&gt;node_58</title>
<path fill="none" stroke="black" d="M4984.21,-398.95C4993.31,-381.71 5005.53,-358.59 5014.66,-341.3"/>
<polygon fill="black" stroke="black" points="5016.68,-341.97 5017.63,-335.68 5012.97,-340.01 5016.68,-341.97"/>
</g>
<!-- node_60 -->
<g id="node61" class="node">
<title>node_60</title>
<path fill="#546e7a" stroke="#333333" d="M5153.5,-443.5C5153.5,-443.5 5101.5,-443.5 5101.5,-443.5 5095.5,-443.5 5089.5,-437.5 5089.5,-431.5 5089.5,-431.5 5089.5,-416.5 5089.5,-416.5 5089.5,-410.5 5095.5,-404.5 5101.5,-404.5 5101.5,-404.5 5153.5,-404.5 5153.5,-404.5 5159.5,-404.5 5165.5,-410.5 5165.5,-416.5 5165.5,-416.5 5165.5,-431.5 5165.5,-431.5 5165.5,-437.5 5159.5,-443.5 5153.5,-443.5"/>
<text text-anchor="middle" x="5127.5" y="-421.5" font-family="Arial" font-size="10.00">HdlValueId</text>
</g>
<!-- node_59&#45;&gt;node_60 -->
<g id="edge66" class="edge">
<title>node_59&#45;&gt;node_60</title>
<path fill="none" stroke="black" d="M5127.5,-506.95C5127.5,-489.86 5127.5,-467 5127.5,-449.76"/>
<polygon fill="black" stroke="black" points="5129.6,-449.68 5127.5,-443.68 5125.4,-449.68 5129.6,-449.68"/>
</g>
<!-- node_61 -->
<g id="node62" class="node">
<title>node_61</title>
<path fill="#546e7a" stroke="#333333" d="M5353.5,-449C5353.5,-449 5213.5,-449 5213.5,-449 5207.5,-449 5201.5,-443 5201.5,-437 5201.5,-437 5201.5,-411 5201.5,-411 5201.5,-405 5207.5,-399 5213.5,-399 5213.5,-399 5353.5,-399 5353.5,-399 5359.5,-399 5365.5,-405 5365.5,-411 5365.5,-411 5365.5,-437 5365.5,-437 5365.5,-443 5359.5,-449 5353.5,-449"/>
<text text-anchor="middle" x="5283.5" y="-427" font-family="Arial" font-size="10.00">HdlOp</text>
<text text-anchor="middle" x="5283.5" y="-416" font-family="Arial" font-size="10.00">fn: HdlOpType.APOSTROPHE</text>
</g>
<!-- node_59&#45;&gt;node_61 -->
<g id="edge67" class="edge">
<title>node_59&#45;&gt;node_61</title>
<path fill="none" stroke="black" d="M5162.9,-506.95C5186.65,-490.81 5218,-469.5 5242.79,-452.66"/>
<polygon fill="black" stroke="black" points="5244.19,-454.25 5247.97,-449.14 5241.83,-450.78 5244.19,-454.25"/>
</g>
<!-- node_62 -->
<g id="node63" class="node">
<title>node_62</title>
<path fill="#546e7a" stroke="#333333" d="M5265.5,-335.5C5265.5,-335.5 5213.5,-335.5 5213.5,-335.5 5207.5,-335.5 5201.5,-329.5 5201.5,-323.5 5201.5,-323.5 5201.5,-308.5 5201.5,-308.5 5201.5,-302.5 5207.5,-296.5 5213.5,-296.5 5213.5,-296.5 5265.5,-296.5 5265.5,-296.5 5271.5,-296.5 5277.5,-302.5 5277.5,-308.5 5277.5,-308.5 5277.5,-323.5 5277.5,-323.5 5277.5,-329.5 5271.5,-335.5 5265.5,-335.5"/>
<text text-anchor="middle" x="5239.5" y="-313.5" font-family="Arial" font-size="10.00">HdlValueId</text>
</g>
<!-- node_61&#45;&gt;node_62 -->
<g id="edge68" class="edge">
<title>node_61&#45;&gt;node_62</title>
<path fill="none" stroke="black" d="M5273.52,-398.95C5266.36,-381.71 5256.77,-358.59 5249.59,-341.3"/>
<polygon fill="black" stroke="black" points="5251.49,-340.42 5247.25,-335.68 5247.62,-342.03 5251.49,-340.42"/>
</g>
<!-- node_63 -->
<g id="node64" class="node">
<title>node_63</title>
<path fill="#546e7a" stroke="#333333" d="M5377.5,-335.5C5377.5,-335.5 5325.5,-335.5 5325.5,-335.5 5319.5,-335.5 5313.5,-329.5 5313.5,-323.5 5313.5,-323.5 5313.5,-308.5 5313.5,-308.5 5313.5,-302.5 5319.5,-296.5 5325.5,-296.5 5325.5,-296.5 5377.5,-296.5 5377.5,-296.5 5383.5,-296.5 5389.5,-302.5 5389.5,-308.5 5389.5,-308.5 5389.5,-323.5 5389.5,-323.5 5389.5,-329.5 5383.5,-335.5 5377.5,-335.5"/>
<text text-anchor="middle" x="5351.5" y="-313.5" font-family="Arial" font-size="10.00">HdlValueId</text>
</g>
<!-- node_61&#45;&gt;node_63 -->
<g id="edge69" class="edge">
<title>node_61&#45;&gt;node_63</title>
<path fill="none" stroke="black" d="M5298.93,-398.95C5310.08,-381.57 5325.08,-358.19 5336.2,-340.85"/>
<polygon fill="black" stroke="black" points="5338.04,-341.87 5339.52,-335.68 5334.51,-339.6 5338.04,-341.87"/>
</g>
<!-- node_65 -->
<g id="node66" class="node">
<title>node_65</title>
<path fill="#546e7a" stroke="#333333" d="M5604.5,-557C5604.5,-557 5494.5,-557 5494.5,-557 5488.5,-557 5482.5,-551 5482.5,-545 5482.5,-545 5482.5,-519 5482.5,-519 5482.5,-513 5488.5,-507 5494.5,-507 5494.5,-507 5604.5,-507 5604.5,-507 5610.5,-507 5616.5,-513 5616.5,-519 5616.5,-519 5616.5,-545 5616.5,-545 5616.5,-551 5610.5,-557 5604.5,-557"/>
<text text-anchor="middle" x="5549.5" y="-535" font-family="Arial" font-size="10.00">HdlOp</text>
<text text-anchor="middle" x="5549.5" y="-524" font-family="Arial" font-size="10.00">fn: HdlOpType.ARROW</text>
</g>
<!-- node_64&#45;&gt;node_65 -->
<g id="edge71" class="edge">
<title>node_64&#45;&gt;node_65</title>
<path fill="none" stroke="black" d="M5689.5,-620.29C5662.83,-603.66 5623.49,-579.14 5593.31,-560.31"/>
<polygon fill="black" stroke="black" points="5594.36,-558.5 5588.16,-557.11 5592.14,-562.06 5594.36,-558.5"/>
</g>
<!-- node_68 -->
<g id="node69" class="node">
<title>node_68</title>
<path fill="#546e7a" stroke="#333333" d="M5774.5,-557C5774.5,-557 5664.5,-557 5664.5,-557 5658.5,-557 5652.5,-551 5652.5,-545 5652.5,-545 5652.5,-519 5652.5,-519 5652.5,-513 5658.5,-507 5664.5,-507 5664.5,-507 5774.5,-507 5774.5,-507 5780.5,-507 5786.5,-513 5786.5,-519 5786.5,-519 5786.5,-545 5786.5,-545 5786.5,-551 5780.5,-557 5774.5,-557"/>
<text text-anchor="middle" x="5719.5" y="-535" font-family="Arial" font-size="10.00">HdlOp</text>
<text text-anchor="middle" x="5719.5" y="-524" font-family="Arial" font-size="10.00">fn: HdlOpType.ARROW</text>
</g>
<!-- node_64&#45;&gt;node_68 -->
<g id="edge74" class="edge">
<title>node_64&#45;&gt;node_68</title>
<path fill="none" stroke="black" d="M5719.5,-620.05C5719.5,-604.32 5719.5,-581.65 5719.5,-563.39"/>
<polygon fill="black" stroke="black" points="5721.6,-563.38 5719.5,-557.38 5717.4,-563.38 5721.6,-563.38"/>
</g>
<!-- node_71 -->
<g id="node72" class="node">
<title>node_71</title>
<path fill="#546e7a" stroke="#333333" d="M5944.5,-557C5944.5,-557 5834.5,-557 5834.5,-557 5828.5,-557 5822.5,-551 5822.5,-545 5822.5,-545 5822.5,-519 5822.5,-519 5822.5,-513 5828.5,-507 5834.5,-507 5834.5,-507 5944.5,-507 5944.5,-507 5950.5,-507 5956.5,-513 5956.5,-519 5956.5,-519 5956.5,-545 5956.5,-545 5956.5,-551 5950.5,-557 5944.5,-557"/>
<text text-anchor="middle" x="5889.5" y="-535" font-family="Arial" font-size="10.00">HdlOp</text>
<text text-anchor="middle" x="5889.5" y="-524" font-family="Arial" font-size="10.00">fn: HdlOpType.ARROW</text>
</g>
<!-- node_64&#45;&gt;node_71 -->
<g id="edge77" class="edge">
<title>node_64&#45;&gt;node_71</title>
<path fill="none" stroke="black" d="M5749.5,-620.29C5776.17,-603.66 5815.51,-579.14 5845.69,-560.31"/>
<polygon fill="black" stroke="black" points="5846.86,-562.06 5850.84,-557.11 5844.64,-558.5 5846.86,-562.06"/>
</g>
<!-- node_78 -->
<g id="node79" class="node">
<title>node_78</title>
<path fill="#546e7a" stroke="#333333" d="M6210.5,-557C6210.5,-557 6100.5,-557 6100.5,-557 6094.5,-557 6088.5,-551 6088.5,-545 6088.5,-545 6088.5,-519 6088.5,-519 6088.5,-513 6094.5,-507 6100.5,-507 6100.5,-507 6210.5,-507 6210.5,-507 6216.5,-507 6222.5,-513 6222.5,-519 6222.5,-519 6222.5,-545 6222.5,-545 6222.5,-551 6216.5,-557 6210.5,-557"/>
<text text-anchor="middle" x="6155.5" y="-535" font-family="Arial" font-size="10.00">HdlOp</text>
<text text-anchor="middle" x="6155.5" y="-524" font-family="Arial" font-size="10.00">fn: HdlOpType.ARROW</text>
</g>
<!-- node_64&#45;&gt;node_78 -->
<g id="edge84" class="edge">
<title>node_64&#45;&gt;node_78</title>
<path fill="none" stroke="black" d="M5762.9,-628.45C5837.51,-610.31 5990.87,-573.03 6082.27,-550.8"/>
<polygon fill="black" stroke="black" points="6082.86,-552.82 6088.2,-549.36 6081.87,-548.74 6082.86,-552.82"/>
</g>
<!-- node_66 -->
<g id="node67" class="node">
<title>node_66</title>
<path fill="#546e7a" stroke="#333333" d="M5465.5,-443.5C5465.5,-443.5 5413.5,-443.5 5413.5,-443.5 5407.5,-443.5 5401.5,-437.5 5401.5,-431.5 5401.5,-431.5 5401.5,-416.5 5401.5,-416.5 5401.5,-410.5 5407.5,-404.5 5413.5,-404.5 5413.5,-404.5 5465.5,-404.5 5465.5,-404.5 5471.5,-404.5 5477.5,-410.5 5477.5,-416.5 5477.5,-416.5 5477.5,-431.5 5477.5,-431.5 5477.5,-437.5 5471.5,-443.5 5465.5,-443.5"/>
<text text-anchor="middle" x="5439.5" y="-421.5" font-family="Arial" font-size="10.00">HdlValueId</text>
</g>
<!-- node_65&#45;&gt;node_66 -->
<g id="edge72" class="edge">
<title>node_65&#45;&gt;node_66</title>
<path fill="none" stroke="black" d="M5524.54,-506.95C5506.19,-489.27 5481.41,-465.38 5463.33,-447.96"/>
<polygon fill="black" stroke="black" points="5464.66,-446.33 5458.89,-443.68 5461.75,-449.36 5464.66,-446.33"/>
</g>
<!-- node_67 -->
<g id="node68" class="node">
<title>node_67</title>
<path fill="#546e7a" stroke="#333333" d="M5577.5,-443.5C5577.5,-443.5 5525.5,-443.5 5525.5,-443.5 5519.5,-443.5 5513.5,-437.5 5513.5,-431.5 5513.5,-431.5 5513.5,-416.5 5513.5,-416.5 5513.5,-410.5 5519.5,-404.5 5525.5,-404.5 5525.5,-404.5 5577.5,-404.5 5577.5,-404.5 5583.5,-404.5 5589.5,-410.5 5589.5,-416.5 5589.5,-416.5 5589.5,-431.5 5589.5,-431.5 5589.5,-437.5 5583.5,-443.5 5577.5,-443.5"/>
<text text-anchor="middle" x="5551.5" y="-421.5" font-family="Arial" font-size="10.00">HdlValueId</text>
</g>
<!-- node_65&#45;&gt;node_67 -->
<g id="edge73" class="edge">
<title>node_65&#45;&gt;node_67</title>
<path fill="none" stroke="black" d="M5549.95,-506.95C5550.28,-489.86 5550.71,-467 5551.03,-449.76"/>
<polygon fill="black" stroke="black" points="5553.13,-449.72 5551.15,-443.68 5548.93,-449.64 5553.13,-449.72"/>
</g>
<!-- node_69 -->
<g id="node70" class="node">
<title>node_69</title>
<path fill="#546e7a" stroke="#333333" d="M5689.5,-443.5C5689.5,-443.5 5637.5,-443.5 5637.5,-443.5 5631.5,-443.5 5625.5,-437.5 5625.5,-431.5 5625.5,-431.5 5625.5,-416.5 5625.5,-416.5 5625.5,-410.5 5631.5,-404.5 5637.5,-404.5 5637.5,-404.5 5689.5,-404.5 5689.5,-404.5 5695.5,-404.5 5701.5,-410.5 5701.5,-416.5 5701.5,-416.5 5701.5,-431.5 5701.5,-431.5 5701.5,-437.5 5695.5,-443.5 5689.5,-443.5"/>
<text text-anchor="middle" x="5663.5" y="-421.5" font-family="Arial" font-size="10.00">HdlValueId</text>
</g>
<!-- node_68&#45;&gt;node_69 -->
<g id="edge75" class="edge">
<title>node_68&#45;&gt;node_69</title>
<path fill="none" stroke="black" d="M5706.79,-506.95C5697.69,-489.71 5685.47,-466.59 5676.34,-449.3"/>
<polygon fill="black" stroke="black" points="5678.03,-448.01 5673.37,-443.68 5674.32,-449.97 5678.03,-448.01"/>
</g>
<!-- node_70 -->
<g id="node71" class="node">
<title>node_70</title>
<path fill="#546e7a" stroke="#333333" d="M5801.5,-443.5C5801.5,-443.5 5749.5,-443.5 5749.5,-443.5 5743.5,-443.5 5737.5,-437.5 5737.5,-431.5 5737.5,-431.5 5737.5,-416.5 5737.5,-416.5 5737.5,-410.5 5743.5,-404.5 5749.5,-404.5 5749.5,-404.5 5801.5,-404.5 5801.5,-404.5 5807.5,-404.5 5813.5,-410.5 5813.5,-416.5 5813.5,-416.5 5813.5,-431.5 5813.5,-431.5 5813.5,-437.5 5807.5,-443.5 5801.5,-443.5"/>
<text text-anchor="middle" x="5775.5" y="-421.5" font-family="Arial" font-size="10.00">HdlValueId</text>
</g>
<!-- node_68&#45;&gt;node_70 -->
<g id="edge76" class="edge">
<title>node_68&#45;&gt;node_70</title>
<path fill="none" stroke="black" d="M5732.21,-506.95C5741.31,-489.71 5753.53,-466.59 5762.66,-449.3"/>
<polygon fill="black" stroke="black" points="5764.68,-449.97 5765.63,-443.68 5760.97,-448.01 5764.68,-449.97"/>
</g>
<!-- node_72 -->
<g id="node73" class="node">
<title>node_72</title>
<path fill="#546e7a" stroke="#333333" d="M5913.5,-443.5C5913.5,-443.5 5861.5,-443.5 5861.5,-443.5 5855.5,-443.5 5849.5,-437.5 5849.5,-431.5 5849.5,-431.5 5849.5,-416.5 5849.5,-416.5 5849.5,-410.5 5855.5,-404.5 5861.5,-404.5 5861.5,-404.5 5913.5,-404.5 5913.5,-404.5 5919.5,-404.5 5925.5,-410.5 5925.5,-416.5 5925.5,-416.5 5925.5,-431.5 5925.5,-431.5 5925.5,-437.5 5919.5,-443.5 5913.5,-443.5"/>
<text text-anchor="middle" x="5887.5" y="-421.5" font-family="Arial" font-size="10.00">HdlValueId</text>
</g>
<!-- node_71&#45;&gt;node_72 -->
<g id="edge78" class="edge">
<title>node_71&#45;&gt;node_72</title>
<path fill="none" stroke="black" d="M5889.05,-506.95C5888.72,-489.86 5888.29,-467 5887.97,-449.76"/>
<polygon fill="black" stroke="black" points="5890.07,-449.64 5887.85,-443.68 5885.87,-449.72 5890.07,-449.64"/>
</g>
<!-- node_73 -->
<g id="node74" class="node">
<title>node_73</title>
<path fill="#546e7a" stroke="#333333" d="M6069,-449C6069,-449 5974,-449 5974,-449 5968,-449 5962,-443 5962,-437 5962,-437 5962,-411 5962,-411 5962,-405 5968,-399 5974,-399 5974,-399 6069,-399 6069,-399 6075,-399 6081,-405 6081,-411 6081,-411 6081,-437 6081,-437 6081,-443 6075,-449 6069,-449"/>
<text text-anchor="middle" x="6021.5" y="-427" font-family="Arial" font-size="10.00">HdlOp</text>
<text text-anchor="middle" x="6021.5" y="-416" font-family="Arial" font-size="10.00">fn: HdlOpType.CALL</text>
</g>
<!-- node_71&#45;&gt;node_73 -->
<g id="edge79" class="edge">
<title>node_71&#45;&gt;node_73</title>
<path fill="none" stroke="black" d="M5919.45,-506.95C5939.31,-491 5965.45,-470.01 5986.3,-453.27"/>
<polygon fill="black" stroke="black" points="5987.85,-454.72 5991.21,-449.32 5985.22,-451.44 5987.85,-454.72"/>
</g>
<!-- node_74 -->
<g id="node75" class="node">
<title>node_74</title>
<path fill="#546e7a" stroke="#333333" d="M5969.5,-335.5C5969.5,-335.5 5917.5,-335.5 5917.5,-335.5 5911.5,-335.5 5905.5,-329.5 5905.5,-323.5 5905.5,-323.5 5905.5,-308.5 5905.5,-308.5 5905.5,-302.5 5911.5,-296.5 5917.5,-296.5 5917.5,-296.5 5969.5,-296.5 5969.5,-296.5 5975.5,-296.5 5981.5,-302.5 5981.5,-308.5 5981.5,-308.5 5981.5,-323.5 5981.5,-323.5 5981.5,-329.5 5975.5,-335.5 5969.5,-335.5"/>
<text text-anchor="middle" x="5943.5" y="-313.5" font-family="Arial" font-size="10.00">HdlValueId</text>
</g>
<!-- node_73&#45;&gt;node_74 -->
<g id="edge80" class="edge">
<title>node_73&#45;&gt;node_74</title>
<path fill="none" stroke="black" d="M6003.8,-398.95C5991.01,-381.57 5973.81,-358.19 5961.05,-340.85"/>
<polygon fill="black" stroke="black" points="5962.49,-339.27 5957.25,-335.68 5959.11,-341.76 5962.49,-339.27"/>
</g>
<!-- node_75 -->
<g id="node76" class="node">
<title>node_75</title>
<path fill="#546e7a" stroke="#333333" d="M6169.5,-341C6169.5,-341 6029.5,-341 6029.5,-341 6023.5,-341 6017.5,-335 6017.5,-329 6017.5,-329 6017.5,-303 6017.5,-303 6017.5,-297 6023.5,-291 6029.5,-291 6029.5,-291 6169.5,-291 6169.5,-291 6175.5,-291 6181.5,-297 6181.5,-303 6181.5,-303 6181.5,-329 6181.5,-329 6181.5,-335 6175.5,-341 6169.5,-341"/>
<text text-anchor="middle" x="6099.5" y="-319" font-family="Arial" font-size="10.00">HdlOp</text>
<text text-anchor="middle" x="6099.5" y="-308" font-family="Arial" font-size="10.00">fn: HdlOpType.APOSTROPHE</text>
</g>
<!-- node_73&#45;&gt;node_75 -->
<g id="edge81" class="edge">
<title>node_73&#45;&gt;node_75</title>
<path fill="none" stroke="black" d="M6039.2,-398.95C6050.69,-383.34 6065.73,-362.89 6077.92,-346.33"/>
<polygon fill="black" stroke="black" points="6079.74,-347.4 6081.6,-341.32 6076.35,-344.91 6079.74,-347.4"/>
</g>
<!-- node_76 -->
<g id="node77" class="node">
<title>node_76</title>
<path fill="#546e7a" stroke="#333333" d="M6069.5,-233C6069.5,-233 6017.5,-233 6017.5,-233 6011.5,-233 6005.5,-227 6005.5,-221 6005.5,-221 6005.5,-206 6005.5,-206 6005.5,-200 6011.5,-194 6017.5,-194 6017.5,-194 6069.5,-194 6069.5,-194 6075.5,-194 6081.5,-200 6081.5,-206 6081.5,-206 6081.5,-221 6081.5,-221 6081.5,-227 6075.5,-233 6069.5,-233"/>
<text text-anchor="middle" x="6043.5" y="-211" font-family="Arial" font-size="10.00">HdlValueId</text>
</g>
<!-- node_75&#45;&gt;node_76 -->
<g id="edge82" class="edge">
<title>node_75&#45;&gt;node_76</title>
<path fill="none" stroke="black" d="M6086.09,-290.93C6077.27,-275.1 6065.77,-254.47 6056.95,-238.63"/>
<polygon fill="black" stroke="black" points="6058.58,-237.25 6053.83,-233.03 6054.91,-239.29 6058.58,-237.25"/>
</g>
<!-- node_77 -->
<g id="node78" class="node">
<title>node_77</title>
<path fill="#546e7a" stroke="#333333" d="M6181.5,-233C6181.5,-233 6129.5,-233 6129.5,-233 6123.5,-233 6117.5,-227 6117.5,-221 6117.5,-221 6117.5,-206 6117.5,-206 6117.5,-200 6123.5,-194 6129.5,-194 6129.5,-194 6181.5,-194 6181.5,-194 6187.5,-194 6193.5,-200 6193.5,-206 6193.5,-206 6193.5,-221 6193.5,-221 6193.5,-227 6187.5,-233 6181.5,-233"/>
<text text-anchor="middle" x="6155.5" y="-211" font-family="Arial" font-size="10.00">HdlValueId</text>
</g>
<!-- node_75&#45;&gt;node_77 -->
<g id="edge83" class="edge">
<title>node_75&#45;&gt;node_77</title>
<path fill="none" stroke="black" d="M6112.91,-290.93C6121.73,-275.1 6133.23,-254.47 6142.05,-238.63"/>
<polygon fill="black" stroke="black" points="6144.09,-239.29 6145.17,-233.03 6140.42,-237.25 6144.09,-239.29"/>
</g>
<!-- node_79 -->
<g id="node80" class="node">
<title>node_79</title>
<path fill="#546e7a" stroke="#333333" d="M6181.5,-443.5C6181.5,-443.5 6129.5,-443.5 6129.5,-443.5 6123.5,-443.5 6117.5,-437.5 6117.5,-431.5 6117.5,-431.5 6117.5,-416.5 6117.5,-416.5 6117.5,-410.5 6123.5,-404.5 6129.5,-404.5 6129.5,-404.5 6181.5,-404.5 6181.5,-404.5 6187.5,-404.5 6193.5,-410.5 6193.5,-416.5 6193.5,-416.5 6193.5,-431.5 6193.5,-431.5 6193.5,-437.5 6187.5,-443.5 6181.5,-443.5"/>
<text text-anchor="middle" x="6155.5" y="-421.5" font-family="Arial" font-size="10.00">HdlValueId</text>
</g>
<!-- node_78&#45;&gt;node_79 -->
<g id="edge85" class="edge">
<title>node_78&#45;&gt;node_79</title>
<path fill="none" stroke="black" d="M6155.5,-506.95C6155.5,-489.86 6155.5,-467 6155.5,-449.76"/>
<polygon fill="black" stroke="black" points="6157.6,-449.68 6155.5,-443.68 6153.4,-449.68 6157.6,-449.68"/>
</g>
<!-- node_80 -->
<g id="node81" class="node">
<title>node_80</title>
<path fill="#546e7a" stroke="#333333" d="M6293.5,-443.5C6293.5,-443.5 6241.5,-443.5 6241.5,-443.5 6235.5,-443.5 6229.5,-437.5 6229.5,-431.5 6229.5,-431.5 6229.5,-416.5 6229.5,-416.5 6229.5,-410.5 6235.5,-404.5 6241.5,-404.5 6241.5,-404.5 6293.5,-404.5 6293.5,-404.5 6299.5,-404.5 6305.5,-410.5 6305.5,-416.5 6305.5,-416.5 6305.5,-431.5 6305.5,-431.5 6305.5,-437.5 6299.5,-443.5 6293.5,-443.5"/>
<text text-anchor="middle" x="6267.5" y="-421.5" font-family="Arial" font-size="10.00">HdlValueId</text>
</g>
<!-- node_78&#45;&gt;node_80 -->
<g id="edge86" class="edge">
<title>node_78&#45;&gt;node_80</title>
<path fill="none" stroke="black" d="M6180.91,-506.95C6199.6,-489.27 6224.83,-465.38 6243.24,-447.96"/>
<polygon fill="black" stroke="black" points="6244.85,-449.33 6247.76,-443.68 6241.96,-446.28 6244.85,-449.33"/>
</g>
</g>
</svg>
